<?xml version="1.0" encoding="UTF-8" standalone="no"?>
<!-- Created with Inkscape (http://www.inkscape.org/) -->
<svg xmlns:dc="http://purl.org/dc/elements/1.1/" xmlns:cc="http://creativecommons.org/ns#" xmlns:rdf="http://www.w3.org/1999/02/22-rdf-syntax-ns#" xmlns:svg="http://www.w3.org/2000/svg" xmlns="http://www.w3.org/2000/svg" xmlns:xlink="http://www.w3.org/1999/xlink" xmlns:sodipodi="http://sodipodi.sourceforge.net/DTD/sodipodi-0.dtd" xmlns:inkscape="http://www.inkscape.org/namespaces/inkscape" id="svg3401" sodipodi:version="0.32" inkscape:version="0.45.1+0.46pre1+devel" width="476.65396" height="365.19131" version="1.0" sodipodi:docbase="C:\Documents and Settings\Zuzik\Plocha\15.Cinnosti" sodipodi:docname="Machovka_Shoes_text.svg" inkscape:export-filename="C:\joanna\Gfx\drawings_vector\admin\thumbs\Machovka_shoes.png" inkscape:export-xdpi="31.532309" inkscape:export-ydpi="31.532309" inkscape:output_extension="org.inkscape.output.svg.inkscape">
  <metadata id="metadata3406">
    <rdf:RDF>
      <cc:Work rdf:about="">
        <dc:format>image/svg+xml</dc:format>
        <dc:type rdf:resource="http://purl.org/dc/dcmitype/StillImage"/>
        <dc:title>Boty adio(alien)</dc:title>
        <dc:date>9.11 2006</dc:date>
        <dc:creator>
          <cc:Agent>
            <dc:title>Eva Krauskopfova</dc:title>
          </cc:Agent>
        </dc:creator>
        <dc:publisher>
          <cc:Agent>
            <dc:title>ZS a MS Machovo nam.</dc:title>
          </cc:Agent>
        </dc:publisher>
        <dc:language>cz</dc:language>
        <dc:subject>
          <rdf:Bag>
            <rdf:li>boty</rdf:li>
            <rdf:li>shoes</rdf:li>
          </rdf:Bag>
        </dc:subject>
        <cc:license rdf:resource="http://web.resource.org/cc/PublicDomain"/>
      </cc:Work>
      <cc:License rdf:about="http://web.resource.org/cc/PublicDomain">
        <cc:permits rdf:resource="http://web.resource.org/cc/Reproduction"/>
        <cc:permits rdf:resource="http://web.resource.org/cc/Distribution"/>
        <cc:permits rdf:resource="http://web.resource.org/cc/DerivativeWorks"/>
      </cc:License>
    </rdf:RDF>
  </metadata>
  <defs id="defs3404">
    <inkscape:perspective sodipodi:type="inkscape:persp3d" inkscape:vp_x="-50 : 600 : 1" inkscape:vp_y="0 : 1000 : 0" inkscape:vp_z="700 : 600 : 1" inkscape:persp3d-origin="300 : 400 : 1" id="perspective128"/>
    <radialGradient inkscape:collect="always" xlink:href="#linearGradient2979" id="radialGradient3039" gradientUnits="userSpaceOnUse" gradientTransform="matrix(1.445536,1.860204,-0.76871,0.597352,476.6477,1379.717)" cx="-719.80615" cy="31.871191" fx="-719.80615" fy="31.871191" r="41.91853"/>
    <linearGradient inkscape:collect="always" id="linearGradient2979">
      <stop style="stop-color:black;stop-opacity:1;" offset="0" id="stop2981"/>
      <stop style="stop-color:#c0bfba;stop-opacity:1" offset="1" id="stop2983"/>
    </linearGradient>
    <linearGradient id="linearGradient7048">
      <stop style="stop-color:#bfc5b4;stop-opacity:1;" offset="0" id="stop7050"/>
      <stop style="stop-color:#bfc5b4;stop-opacity:0;" offset="1" id="stop7052"/>
    </linearGradient>
    <linearGradient inkscape:collect="always" xlink:href="#linearGradient7048" id="linearGradient7062" gradientUnits="userSpaceOnUse" x1="-630.12964" y1="64.051041" x2="-530.62866" y2="6.109705" gradientTransform="matrix(0.998867,4.759668e-2,-4.759668e-2,0.998867,-141.3994,50.74375)"/>
    <radialGradient inkscape:collect="always" xlink:href="#linearGradient7048" id="radialGradient8854" cx="-763.46448" cy="90.938011" fx="-763.46448" fy="90.938011" r="41.542519" gradientTransform="matrix(1.727142,0.174778,-0.170577,1.685627,577.6591,69.10123)" gradientUnits="userSpaceOnUse"/>
    <radialGradient inkscape:collect="always" xlink:href="#linearGradient7048" id="radialGradient8860" gradientUnits="userSpaceOnUse" gradientTransform="matrix(1.727142,0.174778,-0.170577,1.685627,577.6591,69.10123)" cx="-763.46448" cy="90.938011" fx="-763.46448" fy="90.938011" r="41.542519"/>
    <linearGradient inkscape:collect="always" xlink:href="#linearGradient7048" id="linearGradient8862" gradientUnits="userSpaceOnUse" gradientTransform="matrix(0.998867,4.759668e-2,-4.759668e-2,0.998867,-141.3994,50.74375)" x1="-630.12964" y1="64.051041" x2="-530.62866" y2="6.109705"/>
    <linearGradient inkscape:collect="always" xlink:href="#linearGradient7048" id="linearGradient8865" gradientUnits="userSpaceOnUse" gradientTransform="matrix(0.998867,4.759668e-2,-4.759668e-2,0.998867,-113.8994,56.74375)" x1="-630.12964" y1="64.051041" x2="-530.62866" y2="6.109705"/>
    <radialGradient inkscape:collect="always" xlink:href="#linearGradient7048" id="radialGradient8868" gradientUnits="userSpaceOnUse" gradientTransform="matrix(1.727142,0.174778,-0.170577,1.685627,605.1591,75.10123)" cx="-763.46448" cy="90.938011" fx="-763.46448" fy="90.938011" r="41.542519"/>
    <radialGradient inkscape:collect="always" xlink:href="#linearGradient7048" id="radialGradient8874" gradientUnits="userSpaceOnUse" gradientTransform="matrix(1.727142,0.174778,-0.170577,1.685627,605.1591,75.10123)" cx="-763.46448" cy="90.938011" fx="-763.46448" fy="90.938011" r="41.542519"/>
    <linearGradient inkscape:collect="always" xlink:href="#linearGradient7048" id="linearGradient8876" gradientUnits="userSpaceOnUse" gradientTransform="matrix(0.998867,4.759668e-2,-4.759668e-2,0.998867,-113.8994,56.74375)" x1="-630.12964" y1="64.051041" x2="-530.62866" y2="6.109705"/>
    <radialGradient inkscape:collect="always" xlink:href="#linearGradient2979" id="radialGradient3249" gradientUnits="userSpaceOnUse" gradientTransform="matrix(1.445536,1.860204,-0.76871,0.597352,476.6477,1379.717)" cx="-719.80615" cy="31.871191" fx="-719.80615" fy="31.871191" r="41.91853"/>
    <radialGradient inkscape:collect="always" xlink:href="#linearGradient2979" id="radialGradient3251" gradientUnits="userSpaceOnUse" gradientTransform="matrix(1.445536,1.860204,-0.76871,0.597352,476.6477,1379.717)" cx="-719.80615" cy="31.871191" fx="-719.80615" fy="31.871191" r="41.91853"/>
    <radialGradient inkscape:collect="always" xlink:href="#linearGradient2979" id="radialGradient3459" gradientUnits="userSpaceOnUse" gradientTransform="matrix(1.445536,1.860204,-0.76871,0.597352,476.6477,1379.717)" cx="-719.80615" cy="31.871191" fx="-719.80615" fy="31.871191" r="41.91853"/>
    <radialGradient inkscape:collect="always" xlink:href="#linearGradient2979" id="radialGradient2608" gradientUnits="userSpaceOnUse" gradientTransform="matrix(1.445536,1.860204,-0.76871,0.597352,476.6477,1379.717)" cx="-719.80615" cy="31.871191" fx="-719.80615" fy="31.871191" r="41.91853"/>
    <radialGradient inkscape:collect="always" xlink:href="#linearGradient2979" id="radialGradient2611" gradientUnits="userSpaceOnUse" gradientTransform="matrix(1.691552,1.6396889,-0.6775845,0.6990156,1304.4308,1292.7162)" cx="-719.80615" cy="31.871191" fx="-719.80615" fy="31.871191" r="41.91853"/>
    <radialGradient inkscape:collect="always" xlink:href="#linearGradient2979" id="radialGradient2711" gradientUnits="userSpaceOnUse" gradientTransform="matrix(1.445536,1.860204,-0.76871,0.597352,476.6477,1379.717)" cx="-719.80615" cy="31.871191" fx="-719.80615" fy="31.871191" r="41.91853"/>
    <radialGradient inkscape:collect="always" xlink:href="#linearGradient2979" id="radialGradient2714" gradientUnits="userSpaceOnUse" gradientTransform="matrix(1.691552,1.6396889,-0.6775845,0.6990156,1327.764,1236.531)" cx="-719.80615" cy="31.871191" fx="-719.80615" fy="31.871191" r="41.91853"/>
  </defs>
  <sodipodi:namedview inkscape:window-height="710" inkscape:window-width="1024" inkscape:pageshadow="2" inkscape:pageopacity="0.0" guidetolerance="10.0" gridtolerance="10.0" objecttolerance="10.0" borderopacity="1.0" bordercolor="#666666" pagecolor="#ffffff" id="base" inkscape:zoom="1.3973214" inkscape:cx="214.19964" inkscape:cy="262.87866" inkscape:window-x="22" inkscape:window-y="29" inkscape:current-layer="svg3401" showguides="true" inkscape:guide-bbox="true" showgrid="false"/>
  <path style="fill:#a4a59d;fill-opacity:1;fill-rule:evenodd;stroke:#000000;stroke-width:0.99999952px;stroke-linecap:butt;stroke-linejoin:miter;stroke-opacity:1" d="M 23.833254,218.1614 C 24.62174,217.51922 23.845452,215.63083 23.871459,214.47353 C 23.911216,212.70459 26.284081,210.43332 26.432377,208.19426 C 26.750426,203.39228 28.584173,198.35637 30.489427,195.85047 C 33.071131,192.45489 45.79179,193.05732 51.968489,199.89422 C 64.598335,205.55519 75.643834,207.81124 88.944741,211.5522 C 106.72987,216.55437 122.56184,225.65213 139.22702,233.83644 C 159.69488,241.05938 180.07144,249.51563 197.42974,262.70009 C 211.2627,265.53761 217.71427,249.75386 232.67991,255.61713 C 247.90408,258.26427 263.22814,260.70576 278.70777,259.31266 C 327.84816,259.27954 381.45466,250.91989 428.7795,238.63164 C 445.31799,232.56999 459.77134,217.68743 471.39638,204.57679 C 479.21778,223.54202 478.62491,253.7188 460.24861,266.44783 C 444.77751,278.00317 426.30596,284.94558 408.2825,291.38635 C 381.13908,297.83709 353.3578,301.31415 325.82104,305.65519 C 293.27918,309.80295 259.04924,310.97369 228.14753,298.26943 C 186.91427,285.70436 148.5674,262.87211 105.02098,258.85316 C 80.512079,251.43069 50.856502,251.50266 32.658377,231.01479 C 29.49039,226.89792 25.241892,223.1663 23.833254,218.1614 z" id="path3414" sodipodi:nodetypes="cssscsccccccccccccc"/>
  <path style="fill:none;fill-rule:evenodd;stroke:#000000;stroke-width:0.99999952px;stroke-linecap:butt;stroke-linejoin:miter;stroke-opacity:1" d="M 204.51067,266.07935 L 219.49244,255.91948 L 226.09402,254.17333 C 226.09402,254.17333 250.95281,261.06452 253.84464,261.36819 C 256.73649,261.67185 276.06771,260.10591 276.06771,260.10591 L 285.57099,260.77776 C 285.57099,260.77776 317.8504,259.9512 321.24321,258.75962 C 324.63604,257.56804 368.84516,252.67491 368.84516,252.67491 L 428.43724,238.52188 L 449.2651,229.30616 L 467.07237,213.62442 L 471.25624,204.27314 L 459.05805,184.44661 L 451.08852,178.45023 C 451.08852,178.45023 430.95197,172.03615 427.76416,169.63759 C 424.57634,167.23904 410.62581,159.23873 410.62581,159.23873 L 403.0509,156.03553 L 390.29965,146.44131 L 385.71525,144.24008 L 380.24292,135.75417 L 374.7387,132.08369 C 374.7387,132.08369 370.52293,131.25483 367.68125,130.67439 C 364.91739,130.10983 359.45039,123.22992 359.45039,123.22992 L 357.30942,121.0099 L 349.46394,103.59792 L 344.37509,101.72043 L 340.1479,104.66163 L 329.33655,98.075619 L 332.13743,92.694257 L 319.98581,82.303091 L 312.50187,84.784924 L 304.33502,77.391943 L 307.4598,74.424908 L 294.82324,63.733666 L 289.8912,65.900162 L 284.6072,60.53429 L 279.33938,55.282969 L 285.49221,49.887787 L 272.88228,36.252682 L 259.33407,26.05883 L 247.47842,17.762551 L 238.40057,19.045101 L 233.51251,19.735703 L 228.62444,20.426306 L 214.47659,11.029409 L 208.0023,5.5340062 L 191.85053,2.1181069 L 176.69303,0.69843624 L 169.80692,1.1656385 L 158.57167,3.5065357 L 145.83857,9.7491469 C 145.83857,9.7491469 138.12526,13.894391 135.70382,16.920214 C 133.94125,19.122693 126.28629,27.050405 126.28629,27.050405 L 116.78304,45.486687 L 114.3691,58.64796 L 114.64969,70.716304 L 107.95502,78.784497 L 98.664467,88.643911 L 94.565654,94.920882 L 81.594006,98.890261 L 71.514196,103.16331 L 58.246576,105.03781 L 51.863255,105.22743 L 41.707871,93.841997 L 40.721295,86.859036 C 40.721295,86.859036 39.135072,80.673031 38.740441,77.879848 C 38.345811,75.086664 37.457892,68.802 37.063262,66.008817 C 36.668632,63.215633 35.583398,55.534378 35.583398,55.534378 L 36.445072,46.509706 L 42.881572,44.175865 L 56.949985,40.407646 C 56.949985,40.407646 58.927461,40.250462 63.716877,38.861562 C 68.506282,37.472665 77.504238,34.654734 83.788901,33.766815 C 90.073563,32.878897 91.470153,32.681582 91.470153,32.681582 L 101.72266,34.672046 L 109.81547,36.499804 L 118.27829,45.987668 L 109.81547,36.499804 L 91.868634,32.981401 L 83.757016,34.152745 L 74.230581,35.361647 L 52.259227,42.494842 L 36.395743,46.160557 L 35.632737,55.883525 L 31.666518,73.181398 L 25.146082,97.60637 L 24.614326,119.04853 L 27.672712,140.69571 L 28.347933,155.55724 L 32.374607,194.14027 L 43.986813,200.3552 L 64.430468,208.6898 L 73.023613,212.79218 L 93.49543,216.74814 C 93.49543,216.74814 94.260846,217.84104 120.31465,225.23984 C 123.02827,226.01046 137.25651,234.50122 137.25651,234.50122 L 160.87376,241.35921 L 204.51067,266.07935 z" id="path3416" sodipodi:nodetypes="cccsccscccccccsccccccscccccccccccccccccccccccccccccscccccccccccccssccccsscccccccccccccccccccccsccc"/>
  <path style="fill:#acab9c;fill-opacity:1;fill-rule:evenodd;stroke:#000000;stroke-width:0.99999952px;stroke-linecap:butt;stroke-linejoin:miter;stroke-opacity:1" d="M 114.83317,71.199713 L 113.91514,58.616567 L 115.25848,52.210448 L 117.65888,43.457178 L 126.67983,26.290074 L 130.07103,23.684732 C 130.07103,23.684732 136.53687,16.179842 138.37243,14.913255 C 140.20798,13.646671 142.20861,11.872068 144.53793,10.53572 C 146.86725,9.1993749 147.46371,8.5672428 147.46371,8.5672428 L 160.31899,2.8956768 L 176.35936,0.49999677 L 183.03997,0.83309796 C 183.03997,0.83309796 186.82593,1.2871254 189.23939,1.9133073 C 191.6071,2.5276217 191.93977,2.15783 194.88501,2.6849723 C 207.47627,4.9385738 207.82441,4.6558611 208.38428,5.1044564 C 210.39994,6.7195064 212.24435,9.517795 214.56824,11.707597 C 216.89213,13.897401 227.15572,20.034655 227.15572,20.034655 L 259.06325,47.002001 L 268.44965,40.387116 L 273.18416,36.44531 L 285.03879,49.670617 L 275.54518,60.285779 L 284.49143,70.137388 L 294.37241,64.172943 C 294.37241,64.172943 308.42298,75.242355 308.36689,75.14386 C 307.80959,74.165261 294.14208,82.274909 294.14208,82.274909 L 305.98156,92.872512 L 313.38025,84.715349 L 319.71507,81.810179 C 323.96302,85.986945 328.27408,89.215227 332.20444,92.967085 L 328.28065,96.116741 L 338.3212,103.48939 C 338.3212,103.48939 341.9266,103.20977 344.00076,101.826 C 345.19085,101.03203 349.94993,104.32755 349.94993,104.32755 L 357.248,120.64313 L 359.61379,123.82997 L 367.58732,130.75042 L 369.14638,130.39464 L 375.09293,131.77664 L 377.90402,132.44784 L 383.10988,140.7776 L 383.02924,147.33613 L 373.00889,151.26997 L 372.01046,158.46179 L 366.71308,163.74286 L 362.68772,167.33333 C 362.68772,167.33333 354.56724,174.0205 352.0984,174.36931 C 349.62954,174.71812 350.12331,174.64836 346.17315,175.20645 C 342.22299,175.76454 337.28529,176.46215 337.28529,176.46215 L 330.86675,178.05115 L 323.52718,184.53209 C 323.52718,184.53209 322.42005,187.71026 316.60585,186.93821 C 307.69411,185.75485 307.7932,185.16153 307.7932,185.16153 L 304.76626,181.56018 L 308.79705,174.44356 L 312.61313,169.37178 L 313.74563,166.69364 L 303.17806,159.62503 L 300.00616,158.56229 C 300.00616,158.56229 293.13454,156.25621 292.98959,158.79482 C 292.84463,161.33343 289.98345,164.25714 289.98345,164.25714 L 285.67595,167.63767 L 280.73825,168.33528 L 271.36207,166.1346 L 266.57478,160.76745 L 268.41577,155.97472 L 271.66831,150.47893 C 271.66831,150.47893 270.8955,148.57361 274.77589,147.52175 C 278.65629,146.46989 277.34732,146.14986 277.34732,146.14986 L 279.92831,144.77929 L 273.8732,142.8722 L 266.00609,138.93806 C 266.00609,138.93806 265.90435,138.19901 263.08126,139.60512 C 260.25817,141.01123 260.11864,140.02369 257.29555,141.4298 C 254.47245,142.8359 250.70465,145.29632 250.70465,145.29632 L 246.05586,148.47125 L 241.75655,149.07867 L 238.38733,146.61934 L 231.48203,141.63784 C 231.48203,141.63784 233.43124,138.40179 234.56374,135.72365 C 235.69624,133.04552 238.34487,130.25414 240.60443,128.42403 C 242.864,126.59391 238.02344,126.26787 240.45608,127.44042 C 242.30825,128.33317 237.00842,126.16549 237.00842,126.16549 L 229.04379,123.26175 C 229.04379,123.26175 228.48025,122.83775 225.44787,122.76254 C 222.41549,122.68735 222.90382,126.14374 220.9985,126.91655 C 219.09319,127.68936 215.35231,129.72877 215.35231,129.72877 C 215.35231,129.72877 212.10521,131.69841 209.56659,131.55344 C 207.02798,131.40848 203.71656,129.3582 203.71656,129.3582 L 199.91681,123.85154 L 200.13697,118.28054 L 206.06764,113.91726 L 209.73875,111.38408 L 212.9161,108.92068 L 205.2305,107.99202 L 200.22313,106.43784 L 197.29748,105.33094 L 192.04912,103.81082 L 185.06659,104.2937 L 182.16829,108.73219 L 177.22515,112.95596 L 171.29992,113.7931 L 168.20322,109.69798 L 166.05396,103.86885 L 164.21528,98.698328 L 166.45451,93.847989 L 169.59728,89.270388 L 172.61317,85.612338 L 174.55567,82.863082 L 176.06889,80.498236 L 167.47936,76.057316 L 159.86897,72.096275 L 151.83456,68.69877 C 151.83456,68.69877 145.63027,67.560829 143.58544,67.346104 C 141.54059,67.131381 130.89239,66.621291 130.89239,66.621291 L 119.2512,69.776875 L 114.83317,71.199713 z" id="path3418" sodipodi:nodetypes="ccccccssccccssssccccccccscccccccscccccccccccccsscccscccccccscccccccsccccsscccccsssccsscscccccccccccccccccccccccccsccc"/>
  <path style="fill:#bfc5b4;fill-opacity:1;fill-rule:evenodd;stroke:#000000;stroke-width:0.99999952px;stroke-linecap:butt;stroke-linejoin:miter;stroke-opacity:1" d="M 323.37909,184.97401 L 331.18294,177.82795 L 339.5503,171.1059 L 346.39876,166.10931 C 346.39876,166.10931 359.35501,156.2208 361.26032,155.44799 C 363.16564,154.67516 373.44832,150.36318 373.44832,150.36318 C 373.44832,150.36318 373.90698,150.27286 375.85127,149.63878 C 377.26057,149.17918 379.05366,148.40975 379.96686,148.19914 C 382.05763,147.71695 383.04603,147.45501 383.04603,147.45501 L 382.97036,139.79006 L 377.9389,132.69473 L 375.82429,131.98623 L 372.68727,131.17038 L 369.16651,130.57128 L 366.34596,132.62722 L 361.67937,135.24374 L 358.36251,136.71961 L 353.21009,139.46207 L 337.82258,148.1832 L 316.08039,161.83115 L 313.46386,166.48164 L 308.90441,173.42114 L 304.76625,181.56019 L 307.5463,185.19642 L 322.2466,187.65214 L 323.37909,184.97401 z" id="path3420" sodipodi:nodetypes="ccccscsscccccccccccccccccc"/>
  <path style="fill:#bfc5b4;fill-opacity:1;fill-rule:evenodd;stroke:#000000;stroke-width:0.99999952px;stroke-linecap:butt;stroke-linejoin:miter;stroke-opacity:1" d="M 298.67491,158.31802 C 298.67491,158.31802 302.07542,152.13971 302.22725,150.69379 C 302.37908,149.24786 306.67906,141.87412 306.67906,141.87412 L 312.80261,132.28408 L 320.94705,121.87437 L 327.14075,115.30142 L 335.75575,106.96192 L 338.45107,104.62105 L 344.56726,101.26364 C 347.0113,101.74849 344.59358,101.30857 347.43783,102.0988 L 349.71597,103.66517 L 358.21108,113.40452 C 358.21108,113.40452 358.62696,113.80959 357.59284,116.0626 C 355.0545,121.59279 355.69604,120.03606 357.12067,122.10065 L 357.42532,121.70624 L 355.65684,120.53163 L 354.83522,119.75741 L 349.04875,121.64424 L 340.57877,132.27707 L 334.35655,141.16881 L 322.61236,157.60693 L 315.87411,161.58593 L 313.57422,165.47205 L 303.90827,160.07145 L 298.67491,158.31802 z" id="path3424" sodipodi:nodetypes="csccccccccccscccccccccccc"/>
  <path style="fill:#bfc5b4;fill-opacity:1;fill-rule:evenodd;stroke:#000000;stroke-width:0.99999952px;stroke-linecap:butt;stroke-linejoin:miter;stroke-opacity:1" d="M 266.19098,159.74225 L 268.16489,152.92772 L 272.15028,147.38169 L 278.18621,144.1836 L 280.36277,142.41583 L 293.83184,134.85212 C 300.12217,131.91962 297.82607,134.88299 302.18757,132.92625 L 315.8071,127.33001 L 316.60891,127.47122 L 313.85261,130.55111 L 307.27725,140.94035 L 301.74853,151.37405 L 297.6988,154.69905 L 293.57162,157.71249 C 293.57162,157.71249 290.0446,163.95321 284.3384,166.89982 C 281.83193,168.19413 282.05784,168.47493 274.41944,167.29395 L 270.26671,164.56929 L 266.19098,159.74225 z" id="path3426" sodipodi:nodetypes="ccccccccccccccsccc"/>
  <path style="fill:#bfc5b4;fill-opacity:1;fill-rule:evenodd;stroke:#000000;stroke-width:0.99999952px;stroke-linecap:butt;stroke-linejoin:miter;stroke-opacity:1" d="M 335.8377,138.65162 L 348.40618,135.86865 L 365.78481,132.15361 L 368.18625,130.93165 L 366.06107,129.60582 L 355.36906,119.12987 L 349.15172,121.53054 L 346.26318,124.2083 C 342.93551,128.87533 343.6751,127.44465 335.8377,138.65162 z" id="path3428" sodipodi:nodetypes="ccccccccc"/>
  <path style="fill:#bfc5b4;fill-opacity:1;fill-rule:evenodd;stroke:#000000;stroke-width:0.99999952px;stroke-linecap:butt;stroke-linejoin:miter;stroke-opacity:1" d="M 279.64749,144.56917 L 286.43798,141.10104 L 297.45479,135.25636 L 303.78154,131.84302 L 306.15813,125.46106 L 311.4979,115.13774 L 316.51624,107.8816 C 320.96139,103.62336 320.65968,103.93869 322.73139,101.96725 L 325.48473,100.06736 L 328.62832,97.355575 L 330.64016,95.563803 L 331.70262,92.389932 C 331.70262,92.389932 331.08275,90.409767 328.00189,87.876522 C 325.29827,85.653482 323.61713,84.61358 323.61713,84.61358 L 319.63653,81.32548 L 313.02545,84.956192 L 305.99715,92.244486 L 296.52587,101.89446 L 290.70003,112.28511 C 290.70003,112.28511 287.37107,119.58837 285.67503,121.84249 C 283.979,124.09662 279.52607,131.23823 279.52607,131.23823 L 275.8222,139.40518 L 274.64182,143.00806 L 279.64749,144.56917 z" id="path3430" sodipodi:nodetypes="ccccccccccccsccccccscccc"/>
  <path style="fill:#bfc5b4;fill-opacity:1;fill-rule:evenodd;stroke:#000000;stroke-width:0.99999952px;stroke-linecap:butt;stroke-linejoin:miter;stroke-opacity:1" d="M 226.70582,144.24676 C 231.3145,147.00223 235.70618,149.69162 242.61203,151.56903 L 247.76895,148.82059 L 257.60183,143.53159 L 266.76293,139.01369 L 278.1835,133.56096 L 286.5582,120.42198 L 290.23908,112.60138 L 259.41489,118.25669 L 247.38302,121.17435 L 242.61429,126.63255 L 231.69546,134.97683 L 226.70582,144.24676 z" id="path3432" sodipodi:nodetypes="ccccccccccccc"/>
  <path style="fill:#bfc5b4;fill-opacity:1;fill-rule:evenodd;stroke:#000000;stroke-width:0.99999952px;stroke-linecap:butt;stroke-linejoin:miter;stroke-opacity:1" d="M 307.00823,123.95889 L 315.87156,120.38192 L 323.00843,119.1868 L 328.74708,113.16952 L 334.41894,107.79349 L 338.91606,104.27274 C 336.19008,104.12052 322.01578,106.45861 316.0688,107.9021 L 312.48596,113.76505 L 307.00823,123.95889 z" id="path3434" sodipodi:nodetypes="ccccccccc"/>
  <path style="fill:#bfc5b4;fill-opacity:1;fill-rule:evenodd;stroke:#000000;stroke-width:0.99999952px;stroke-linecap:butt;stroke-linejoin:miter;stroke-opacity:1" d="M 240.68498,120.10617 L 241.957,118.41558 L 249.16786,107.07247 L 258.70805,94.393021 L 267.39749,84.603699 L 274.95444,77.492526 L 282.65092,71.36888 L 289.49044,66.714642 C 289.49044,66.714642 291.19268,65.881249 293.27512,64.579783 C 295.38952,63.258344 294.97631,63.220286 294.97631,63.220286 L 301.92152,69.149888 L 305.36546,72.637725 L 307.73166,75.080006 L 305.97232,77.716122 L 293.28281,82.45742 L 285.22662,92.938021 L 275.05356,106.01331 L 268.40584,116.6933 L 265.23122,117.39363 L 247.55592,124.18039 L 241.90852,126.98406 L 236.47976,125.98837 L 240.68498,120.10617 z" id="path3438" sodipodi:nodetypes="ccccccccscccccccccccccc"/>
  <path style="fill:#bfc5b4;fill-opacity:1;fill-rule:evenodd;stroke:#000000;stroke-width:0.99999952px;stroke-linecap:butt;stroke-linejoin:miter;stroke-opacity:1" d="M 213.76899,131.47 L 222.09992,126.22534 L 223.47279,123.0416 L 228.34616,118.32407 C 228.34616,118.32407 235.40391,114.80879 237.37898,114.52975 C 239.35406,114.2507 245.2793,113.41356 245.2793,113.41356 L 248.29336,109.16257 L 252.41768,103.33976 L 257.49229,95.897128 L 261.11547,91.534761 L 257.3717,92.063694 L 243.39939,95.108942 L 229.62915,98.444093 L 219.53047,103.31128 L 210.6706,108.44786 L 209.14941,108.38451 L 199.85477,117.45388 C 199.79836,122.80954 200.32469,124.69582 199.72256,123.11622 C 200.37352,124.25046 199.42891,125.48027 199.77897,125.47482 C 200.37147,127.01703 202.3328,127.52752 203.72223,129.28175 L 208.92773,131.48687 L 213.76899,131.47 z" id="path3440" sodipodi:nodetypes="ccccsccccccccccccccccc"/>
  <path style="fill:#bfc5b4;fill-opacity:1;fill-rule:evenodd;stroke:#000000;stroke-width:0.99999952px;stroke-linecap:butt;stroke-linejoin:miter;stroke-opacity:1" d="M 278.15862,101.79659 C 284.12231,94.810994 280.86761,98.112542 284.59208,93.884658 L 287.90829,89.287131 L 296.9741,90.798914 L 305.31511,92.65026 L 302.4468,95.58033 L 300.53369,98.122965 L 297.98287,101.51315 L 294.36922,106.3159 L 289.48913,106.99269 L 273.89087,108.29111 C 274.5227,107.49099 276.2156,104.76823 278.15862,101.79659 z" id="path3444" sodipodi:nodetypes="cccccccccccc"/>
  <path style="fill:#bfc5b4;fill-opacity:1;fill-rule:evenodd;stroke:#000000;stroke-width:0.99999952px;stroke-linecap:butt;stroke-linejoin:miter;stroke-opacity:1" d="M 210.60891,108.5555 L 218.47665,96.33468 L 226.8045,83.796372 L 233.81925,74.473377 L 243.98481,62.43288 L 251.91705,54.242673 L 258.14874,48.312585 L 265.86568,42.172656 L 269.72415,39.102691 L 273.12251,36.350215 L 285.40509,50.016333 L 279.72474,55.751256 L 275.70237,59.971577 L 263.84171,70.736667 L 258.81276,76.244346 L 253.53626,81.786998 L 247.01932,89.272282 L 242.80294,95.170124 L 229.92805,98.75651 L 219.70345,103.23087 L 210.60891,108.5555 z" id="path3446" sodipodi:nodetypes="ccccccccccccccccccccc"/>
  <path style="fill:#bfc5b4;fill-opacity:1;fill-rule:evenodd;stroke:#000000;stroke-width:0.99999952px;stroke-linecap:butt;stroke-linejoin:miter;stroke-opacity:1" d="M 163.70461,98.890367 L 162.91183,96.673573 L 169.15662,111.88457 L 177.24206,112.97388 L 182.02509,108.55945 L 185.1395,104.14097 L 198.32905,93.121617 L 206.54107,86.911741 L 214.32796,81.266895 L 223.31486,76.967404 L 233.16302,75.369486 L 237.99423,69.598749 L 252.0428,53.831954 L 241.7356,53.661281 L 232.8241,54.920327 L 221.43719,56.529108 L 213.51587,57.64826 L 202.47869,61.732456 L 190.30055,72.037435 L 176.49825,80.200211 L 172.76166,85.512612 L 169.54155,89.553069 L 166.3869,94.045923 L 163.70461,98.890367 z" id="path3448" sodipodi:nodetypes="cccccccccccccccccccccccc"/>
  <path style="fill:#bfc5b4;fill-opacity:1;fill-rule:evenodd;stroke:#000000;stroke-width:0.99999952px;stroke-linecap:butt;stroke-linejoin:miter;stroke-opacity:1" d="M 259.125,75.897437 C 258.9432,75.969227 259.17098,75.801674 266.83423,78.02183 L 272.31935,79.567789 C 272.31935,79.567789 275.07587,77.196779 276.77527,75.724668 C 278.25444,74.443336 281.7059,72.082269 281.7059,72.082269 L 284.00901,70.060821 C 283.54456,68.668518 283.79725,69.095833 281.48911,66.756929 L 277.04668,61.850076 C 277.04668,61.850076 275.75634,59.983008 275.39906,60.297531 C 274.51582,61.075097 274.12242,61.370557 274.12242,61.370557 L 267.62592,67.198046 L 262.8941,71.615749 L 259.125,75.897437 z" id="path3450" sodipodi:nodetypes="cccsccccscccc"/>
  <path style="fill:#acab9c;fill-opacity:1;fill-rule:evenodd;stroke:#000000;stroke-width:0.99999952px;stroke-linecap:butt;stroke-linejoin:miter;stroke-opacity:1" d="M 137.27306,233.79647 L 162.71044,241.98573 L 147.58523,225.91238 L 137.40283,214.49666 C 137.40283,214.49666 134.70886,210.59251 132.1138,207.38849 C 129.51874,204.18449 126.72584,199.58018 126.72584,199.58018 L 123.43834,191.4751 L 121.95454,180.97281 L 125.56964,171.17838 L 137.89107,157.29738 C 137.89107,157.29738 144.40571,147.80741 147.10741,146.71159 C 149.8091,145.61575 159.52775,133.53074 159.52775,133.53074 L 167.14594,121.74248 L 169.36075,112.14589 L 165.11921,98.551834 L 157.68683,95.227861 L 146.49981,86.810602 L 137.20769,81.696267 L 127.00987,80.280531 L 115.69982,86.788092 L 107.68692,95.150737 L 92.869366,106.52788 L 69.864819,125.66741 L 40.817604,148.16012 L 38.022944,136.5933 C 36.095067,133.05699 38.451043,144.04615 29.261728,127.65478 L 25.000111,118.9732 L 28.462311,143.47856 L 28.846422,153.77916 L 32.433863,194.33472 L 50.120108,203.26201 L 65.561357,208.93584 L 74.705102,212.99994 L 94.548973,216.98056 L 121.88511,225.97273 L 137.27306,233.79647 z" id="path3454" sodipodi:nodetypes="ccccscccccsccccccccccccccccccccccccc"/>
  <path style="fill:#fdfcf4;fill-opacity:1;fill-rule:evenodd;stroke:#000000;stroke-width:0.99999952px;stroke-linecap:butt;stroke-linejoin:miter;stroke-opacity:1" d="M 205.80554,265.77339 C 209.43734,263.74538 214.52521,258.98683 219.64379,256.49628 L 226.61266,253.9968 L 238.16898,257.16125 L 247.52197,244.73059 L 262.26184,223.96438 L 273.81046,209.20365 L 286.70443,193.24292 L 267.13822,179.84841 L 250.53706,169.56974 L 230.61566,157.23534 L 214.22433,148.44193 L 191.68763,135.4671 L 167.34818,122.242 L 160.33071,133.33276 L 150.06023,144.63063 L 146.66187,147.38311 L 137.34658,158.29355 C 137.34658,158.29355 128.49139,168.88649 126.7209,170.65153 C 124.95041,172.41657 122.7466,180.04993 122.7466,180.04993 L 124.35538,191.43684 L 127.69968,200.81117 L 139.97954,216.24505 L 153.49711,231.50406 L 163.23978,241.48931 L 176.2382,249.49967 L 190.72187,257.30019 L 205.80554,265.77339 z" id="path3456" sodipodi:nodetypes="ccccccccccccccccccsccccccccc"/>
  <g id="g2027" transform="matrix(0.990166,-0.139894,0.139894,0.990166,656.21824,-68.523863)">
    <path id="path3458" d="M -459.25,206.75 C -454.67043,207.07715 -449.76714,205.82383 -445.53654,208.01554 C -443.80635,210.56215 -443.3562,214.11727 -443.48339,217.22374 C -446.09564,221.31327 -451.24756,223.06509 -455.41536,225.29365 C -461.80973,228.23558 -468.90762,229.08121 -475.88211,228.75 C -480.26612,229.31774 -484.86983,227.85178 -487.33915,224.01058 C -490.39082,220.78062 -493.17129,217.25959 -494.85495,213.11689 C -496.64816,207.53895 -503.18949,210.42094 -507.56338,209.74087 C -514.26287,209.63575 -521.05451,210.10106 -527.69474,209.82147 C -532.26366,208.01311 -537.44969,205.7844 -539.41895,200.89941 C -542.48094,196.83766 -541.67985,191.44167 -541.67001,186.67668 C -541.64647,181.35581 -537.54584,177.3639 -533.88985,174.01017 C -528.39552,170.85238 -523.01573,167.15918 -516.9245,165.27552 C -511.53531,164.28242 -506.06416,165.17209 -500.66421,165.57322 C -496.20643,168.01447 -490.3796,168.70572 -486.83191,172.30993 C -482.26886,178.50032 -476.99131,184.27741 -473.926,191.42122 C -471.37008,196.49398 -468.54133,201.51094 -465.05246,205.97592 C -463.11831,206.23394 -461.18415,206.49197 -459.25,206.75 z" style="fill:#efb3bb;fill-opacity:1;fill-rule:evenodd;stroke:#000000;stroke-width:1px;stroke-linecap:butt;stroke-linejoin:miter;stroke-opacity:1"/>
    <path id="path3462" d="M -497.79288,202.75 C -505.10234,202.30017 -512.46769,202.2269 -519.72379,201.24807 C -524.11381,199.89568 -527.4375,196.41921 -530,192.75 C -530.91126,188.51885 -528.56644,184.37702 -525.04441,182.14366 C -520.7872,178.80376 -514.93008,177.2696 -509.63814,178.46112 C -505.3846,180.46293 -503.41811,185.09743 -500.56504,188.5784 C -496.83408,193.50358 -494.76571,199.36956 -492.07781,204.8729 C -490.79602,208.20837 -489.52291,211.45195 -487.26541,214.27159 C -484.87129,218.27393 -481.24174,222.57563 -476.16266,222.54867 C -468.99264,223.37402 -461.46079,223.01193 -454.89206,219.74344 C -451.58278,219.32687 -445.95912,214.71596 -451.232,212.56694 C -455.97452,211.48138 -460.91593,214.20543 -465.60445,212.23183 C -470.13619,210.6624 -471.36736,205.5683 -473.27989,201.70533 C -475.45164,196.78017 -478.96953,192.62183 -481.53898,187.90785 C -485.79542,180.71438 -491.82759,173.68778 -500.32736,171.75512 C -504.46344,170.71831 -508.74555,171.53775 -512.94633,171.07703 C -516.6092,170.97009 -519.94023,172.69551 -523.22693,174.089 C -526.77641,175.89318 -529.66556,178.68487 -532.73274,181.14968 C -535.48417,183.80934 -536.28459,187.82907 -535.77446,191.49786 C -536.31967,195.33471 -534.77366,199.09095 -531.59397,201.30129 C -526.58299,205.18678 -519.78663,204.23416 -513.86659,204.52541 C -507.79609,204.5671 -501.64994,204.35279 -495.66123,203.60852 C -496.33596,203.23255 -497.1116,203.11002 -497.79288,202.75 z" style="fill:#bfc5b4;fill-opacity:1;fill-rule:evenodd;stroke:#000000;stroke-width:1px;stroke-linecap:butt;stroke-linejoin:miter;stroke-opacity:1"/>
    <path id="path3464" d="M -501.51547,196.74843 C -506.83302,196.54459 -512.2227,197.27927 -517.48251,196.21518 C -520.13382,195.55628 -522.49453,194.12221 -524.88324,192.8508 C -526.674,191.72359 -526.94787,188.83895 -525.24267,187.50747 C -522.83357,185.26377 -519.81377,183.39503 -516.43836,183.27046 C -514.42671,183.04699 -512.24701,182.1281 -510.31552,183.17008 C -508.32341,184.60556 -506.10966,186.02145 -505.08491,188.35954 C -503.69003,191.0653 -502.75392,193.9732 -501.51547,196.74843 z" style="fill:#ffffff;fill-opacity:1;fill-rule:evenodd;stroke:#000000;stroke-width:1px;stroke-linecap:butt;stroke-linejoin:miter;stroke-opacity:1"/>
  </g>
  <path style="fill:#bfc5b4;fill-opacity:1;fill-rule:evenodd;stroke:#000000;stroke-width:0.99999952px;stroke-linecap:butt;stroke-linejoin:miter;stroke-opacity:1" d="M 236.70509,256.48305 L 285.51949,192.72877 L 299.40224,198.23408 L 315.55383,203.3323 L 334.62991,200.63717 L 354.65708,190.42749 L 368.67115,180.39641 L 388.04053,170.27966 L 399.70223,162.59372 L 403.02964,156.8376 L 415.94127,162.5087 L 428.35822,170.81828 L 450.9403,178.01729 L 458.53978,184.0796 L 462.51383,189.27856 L 465.58298,194.21235 L 471.28376,204.04686 L 470.98341,208.45392 L 467.831,213.30884 L 448.16129,229.6782 L 428.92993,238.46732 C 428.92993,238.46732 368.93488,254.13438 365.6459,254.59906 C 362.35692,255.06373 311.83404,260.32758 315.48229,259.81214 C 320.08686,259.16159 285.57738,261.32295 285.57738,261.32295 L 278.08719,261.57998 L 254.49624,261.60408 L 246.15428,260.02269 L 236.70509,256.48305 z" id="path3466" sodipodi:nodetypes="cccccccccccccccccccccssccccc"/>
  <path style="fill:none;fill-rule:evenodd;stroke:#000000;stroke-width:0.99999952px;stroke-linecap:butt;stroke-linejoin:miter;stroke-opacity:1" d="M 149.44313,24.852274 L 167.8759,12.855067 L 177.27816,8.1720549 L 186.86629,4.804634 L 192.13,2.441199 L 201.74168,3.6518203 L 208.32708,5.0795292 L 214.65215,11.430026 L 227.67533,20.046975 L 247.7902,37.123581 L 229.8366,43.014755 C 229.8366,43.014755 215.64389,47.032727 213.19858,48.720061 C 210.75327,50.407395 195.1448,58.650946 195.1448,58.650946 L 177.12725,45.094303 L 167.2748,37.093327 L 149.44313,24.852274 z" id="path3468" sodipodi:nodetypes="cccccccccccscccc"/>
  <path style="fill:#acab9c;fill-opacity:1;fill-rule:evenodd;stroke:#000000;stroke-width:0.99999952px;stroke-linecap:butt;stroke-linejoin:miter;stroke-opacity:1" d="M 24.970378,113.07881 L 25.150732,97.367003 L 26.377584,92.469572 L 29.385463,81.243247 L 33.198613,66.933673 L 35.67601,56.790692 L 39.058082,79.04993 L 40.198167,86.288791 L 41.56695,93.87648 L 51.694163,105.32458 L 41.877699,114.64436 L 35.335407,119.47214 C 31.722167,117.27412 29.323438,115.95682 24.970378,113.07881 z" id="path3470" sodipodi:nodetypes="ccccccccccccc"/>
  <path style="fill:#fdfcf4;fill-opacity:1;fill-rule:evenodd;stroke:#000000;stroke-width:0.99999952px;stroke-linecap:butt;stroke-linejoin:miter;stroke-opacity:1" d="M 104.42703,82.064118 L 114.79684,87.23836 L 107.68013,95.214638 L 88.058389,110.79611 L 40.300842,148.85492 L 24.571588,118.511 L 24.977565,112.59213 L 34.699666,119.28364 L 52.160038,105.19358 L 71.197589,102.26668 L 80.636782,98.560998 L 98.25631,88.955407 L 104.38761,82.108994 L 104.42703,82.064118 z" id="path3472" sodipodi:nodetypes="cccccccccccccc"/>
  <path style="fill:#bcb5af;fill-opacity:1;fill-rule:evenodd;stroke:#000000;stroke-width:0.99999952px;stroke-linecap:butt;stroke-linejoin:miter;stroke-opacity:1" d="M 104.17928,82.188386 L 114.29357,71.508288 L 130.64402,66.351743 L 151.76697,68.111583 L 175.82963,80.604876 L 171.70147,86.643903 L 164.67116,98.752861 L 164.8663,98.454993 L 168.98158,111.46061 L 166.56408,122.47654 L 231.27526,159.19146 L 273.13706,185.28492 L 285.21512,193.54123 L 285.69327,193.35148 L 305.1495,200.39442 L 315.66032,204.19921 L 334.12067,200.32866 L 354.13159,190.85963 L 370.558,179.52493 L 389.1078,169.78791 L 399.48239,162.62916 L 402.81427,155.99101 L 389.41166,145.07533 L 385.49345,144.20567 L 382.95745,139.90405 L 383.15516,147.17089 L 381.68731,147.59464 L 379.96517,148.20314 L 373.12692,150.69701 L 372.31784,158.40198 L 353.62635,173.85202 L 334.15654,177.0772 L 330.96633,178.00234 L 323.34969,184.53423 L 322.25001,186.82447 L 321.91631,187.82044 L 307.53777,185.10774 L 305.0858,181.18441 L 313.04895,165.35244 C 313.04895,165.35244 304.2217,159.95776 302.16402,158.82523 C 300.10635,157.69269 297.71498,157.55614 297.71498,157.55614 L 293.48535,157.84013 L 289.82568,162.37444 L 284.88672,166.14067 C 284.88672,166.14067 282.05425,168.00985 278.6669,167.53959 C 275.27955,167.06932 270.20789,164.23849 270.77559,164.56328 L 268.22516,160.77373 L 269.28647,154.45637 L 272.61579,149.47903 L 279.33248,144.97196 L 267.29106,138.63622 L 247.3722,148.88271 L 235.97532,149.61326 L 230.12616,144.99104 L 231.56158,135.65214 L 242.18177,126.91315 L 228.70715,122.79993 L 223.55786,122.96375 L 222.41524,126.1783 L 213.38534,131.51721 L 205.89347,130.32096 L 203.80437,129.16478 L 200.20761,125.55114 L 200.05357,117.74503 L 209.63444,108.32634 L 203.29201,107.08754 L 192.83423,103.58368 L 185.32641,104.17 L 180.56882,109.11191 L 175.4144,112.92385 L 169.37024,112.11733 C 167.22836,108.1502 166.10523,100.82975 164.07193,98.717653 L 153.34729,92.529873 C 149.97738,90.010711 143.294,85.613368 142.91221,85.196885 L 136.86271,81.843013 L 126.49103,80.609802 L 114.69872,87.374582 L 104.17928,82.188386 z" id="path3474" sodipodi:nodetypes="cccccccccccccccccccccccccccccccccccccccsccccsccccccccccccccccccccccccccccccccc"/>
  <path style="fill:#efb3bb;fill-opacity:1;fill-rule:evenodd;stroke:#000000;stroke-width:0.99999952px;stroke-linecap:butt;stroke-linejoin:miter;stroke-opacity:1" d="M 32.827026,211.22827 L 32.827026,211.22827 L 46.154312,220.08016 L 61.084919,228.00089 L 88.745492,235.22074 L 140.4104,248.91657 L 178.65137,260.36829 L 191.80278,265.5311 L 201.92368,268.71627 L 193.86875,280.3926 L 170.18314,271.66232 L 152.04221,266.73004 L 132.24584,259.57816 L 88.414642,249.66855 C 88.414642,249.66855 64.98531,244.45568 61.09226,242.87534 C 54.305377,240.12028 44.252123,235.10928 44.252123,235.10928 L 32.991154,226.63638 L 25.688877,217.16347 L 32.827026,211.22827 z" id="path3476" sodipodi:nodetypes="ccccccccccccccscccc"/>
  <path style="fill:#bcb5af;fill-opacity:1;fill-rule:evenodd;stroke:#000000;stroke-width:0.99999952px;stroke-linecap:butt;stroke-linejoin:miter;stroke-opacity:1" d="M 226.74497,19.565135 L 248.0399,17.505347 L 272.97346,36.162864 L 285.32551,49.716397 L 280.86622,55.090585 L 289.98407,65.899999 L 294.49278,62.771057 L 305.60678,72.561297 L 307.86134,74.727135 L 305.87663,77.649927 L 313.10621,85.167997 L 305.12301,92.463304 L 293.94492,82.182179 L 306.1092,77.617069 L 308.01171,74.943097 L 304.5642,71.741681 L 299.94496,67.554621 L 294.71018,62.829608 L 284.86249,69.944508 L 275.6435,60.098214 L 280.63365,55.123443 L 285.79064,49.650683 L 272.98972,36.277919 L 259.42256,47.269824 L 226.74497,19.565135 z" id="path3478" sodipodi:nodetypes="ccccccccccccccccccccccccc"/>
  <path style="fill:none;fill-rule:evenodd;stroke:#000000;stroke-width:0.96322566px;stroke-linecap:butt;stroke-linejoin:miter;stroke-opacity:1" d="M 204.32566,265.37797 L 191.1768,285.06344" id="path3480"/>
  <path style="fill:none;fill-rule:evenodd;stroke:#000000;stroke-width:0.99999952;stroke-linecap:butt;stroke-linejoin:miter;stroke-miterlimit:4;stroke-dasharray:3.99999808, 7.99999616;stroke-dashoffset:0;stroke-opacity:1" d="M 308.69951,201.39706 L 304.87907,211.12858 L 305.82015,217.78953 L 313.93335,218.64148 L 333.97155,216.21005 L 370.52156,211.84542 L 389.38861,206.78197 C 389.38861,206.78197 406.12618,203.61795 407.58275,202.61288 C 409.0393,201.60781 420.12531,198.04333 420.12531,198.04333 L 433.67726,192.13225 L 445.6109,183.25268 L 446.06672,177.99294 L 445.84528,176.42566 L 454.84852,180.74864 L 456.85434,186.45986 C 456.85434,186.45986 448.73251,191.20412 447.27594,192.20919 C 445.81939,193.21427 434.72906,199.57684 434.72906,199.57684 C 434.72906,199.57684 424.42238,205.8287 422.574,206.88913 C 420.72561,207.94956 404.88241,211.78651 401.07492,213.12373 C 397.26743,214.46094 386.96507,217.9147 383.04686,218.46828 C 379.12865,219.02186 356.06662,222.67978 356.06662,222.67978 L 329.14172,227.28311 L 310.95191,228.6541 C 310.95191,228.6541 304.18457,226.01344 302.45121,225.05941 C 300.71785,224.10537 296.86364,219.45457 296.86364,219.45457 L 295.41571,214.86345 L 296.49341,205.51943 L 299.6366,199.48037 L 300.25417,198.19419 L 308.69951,201.39706 z" id="path3482"/>
  <path sodipodi:type="arc" style="fill:#bcb5af;fill-opacity:1;stroke-width:1;stroke-miterlimit:4;stroke-dasharray:4, 8;stroke-dashoffset:0" id="path5254" sodipodi:cx="359.625" sodipodi:cy="242.75" sodipodi:rx="1.625" sodipodi:ry="1.25" d="M 361.25,242.75 A 1.625,1.25 0 1 1 358,242.75 A 1.625,1.25 0 1 1 361.25,242.75 z" transform="matrix(0.990166,-0.139894,0.139894,0.990166,-12.807829,-2.027175)"/>
  <path sodipodi:type="arc" style="fill:#bcb5af;fill-opacity:1;stroke-width:1;stroke-miterlimit:4;stroke-dasharray:4, 8;stroke-dashoffset:0" id="path5256" sodipodi:cx="359.625" sodipodi:cy="242.75" sodipodi:rx="1.625" sodipodi:ry="1.25" d="M 361.25,242.75 A 1.625,1.25 0 1 1 358,242.75 A 1.625,1.25 0 1 1 361.25,242.75 z" transform="matrix(0.990166,-0.139894,0.139894,0.990166,8.1957368,-15.093937)"/>
  <path sodipodi:type="arc" style="fill:#bcb5af;fill-opacity:1;stroke-width:1;stroke-miterlimit:4;stroke-dasharray:4, 8;stroke-dashoffset:0" id="path5258" sodipodi:cx="359.625" sodipodi:cy="242.75" sodipodi:rx="1.625" sodipodi:ry="1.25" d="M 361.25,242.75 A 1.625,1.25 0 1 1 358,242.75 A 1.625,1.25 0 1 1 361.25,242.75 z" transform="matrix(0.990166,-0.139894,0.139894,0.990166,19.52088,-22.501093)"/>
  <path sodipodi:type="arc" style="fill:#bcb5af;fill-opacity:1;stroke-width:1;stroke-miterlimit:4;stroke-dasharray:4, 8;stroke-dashoffset:0" id="path5260" sodipodi:cx="359.625" sodipodi:cy="242.75" sodipodi:rx="1.625" sodipodi:ry="1.25" d="M 361.25,242.75 A 1.625,1.25 0 1 1 358,242.75 A 1.625,1.25 0 1 1 361.25,242.75 z" transform="matrix(0.990166,-0.139894,0.139894,0.990166,-5.3763687,5.0023287)"/>
  <path sodipodi:type="arc" style="fill:#bcb5af;fill-opacity:1;stroke-width:1;stroke-miterlimit:4;stroke-dasharray:4, 8;stroke-dashoffset:0" id="path5262" sodipodi:cx="359.625" sodipodi:cy="242.75" sodipodi:rx="1.625" sodipodi:ry="1.25" d="M 361.25,242.75 A 1.625,1.25 0 1 1 358,242.75 A 1.625,1.25 0 1 1 361.25,242.75 z" transform="matrix(0.990166,-0.139894,0.139894,0.990166,7.0438608,-1.8020968)"/>
  <path sodipodi:type="arc" style="fill:#bcb5af;fill-opacity:1;stroke-width:1;stroke-miterlimit:4;stroke-dasharray:4, 8;stroke-dashoffset:0" id="path5264" sodipodi:cx="359.625" sodipodi:cy="242.75" sodipodi:rx="1.625" sodipodi:ry="1.25" d="M 361.25,242.75 A 1.625,1.25 0 1 1 358,242.75 A 1.625,1.25 0 1 1 361.25,242.75 z" transform="matrix(0.990166,-0.139894,0.139894,0.990166,-1.8190247,-9.1343293)"/>
  <path sodipodi:type="arc" style="fill:#bcb5af;fill-opacity:1;stroke-width:1;stroke-miterlimit:4;stroke-dasharray:4, 8;stroke-dashoffset:0" id="path5266" sodipodi:cx="359.625" sodipodi:cy="242.75" sodipodi:rx="1.625" sodipodi:ry="1.25" d="M 361.25,242.75 A 1.625,1.25 0 1 1 358,242.75 A 1.625,1.25 0 1 1 361.25,242.75 z" transform="matrix(0.990166,-0.139894,0.139894,0.990166,27.218732,-16.266674)"/>
  <path sodipodi:type="arc" style="fill:#bcb5af;fill-opacity:1;stroke-width:1;stroke-miterlimit:4;stroke-dasharray:4, 8;stroke-dashoffset:0" id="path5268" sodipodi:cx="359.625" sodipodi:cy="242.75" sodipodi:rx="1.625" sodipodi:ry="1.25" d="M 361.25,242.75 A 1.625,1.25 0 1 1 358,242.75 A 1.625,1.25 0 1 1 361.25,242.75 z" transform="matrix(0.990166,-0.139894,0.139894,0.990166,24.086524,-2.6950458)"/>
  <path sodipodi:type="arc" style="fill:#bcb5af;fill-opacity:1;stroke-width:1;stroke-miterlimit:4;stroke-dasharray:4, 8;stroke-dashoffset:0" id="path5270" sodipodi:cx="359.625" sodipodi:cy="242.75" sodipodi:rx="1.625" sodipodi:ry="1.25" d="M 361.25,242.75 A 1.625,1.25 0 1 1 358,242.75 A 1.625,1.25 0 1 1 361.25,242.75 z" transform="matrix(0.990166,-0.139894,0.139894,0.990166,13.22149,4.3946217)"/>
  <path sodipodi:type="arc" style="fill:#bcb5af;fill-opacity:1;stroke-width:1;stroke-miterlimit:4;stroke-dasharray:4, 8;stroke-dashoffset:0" id="path5272" sodipodi:cx="359.625" sodipodi:cy="242.75" sodipodi:rx="1.625" sodipodi:ry="1.25" d="M 361.25,242.75 A 1.625,1.25 0 1 1 358,242.75 A 1.625,1.25 0 1 1 361.25,242.75 z" transform="matrix(0.990166,-0.139894,0.139894,0.990166,16.493592,-8.1868403)"/>
  <path transform="matrix(0.8128418,-0.5824845,0.5824845,0.8128418,0,0)" style="font-size:14.00000286px;font-style:normal;font-variant:normal;font-weight:normal;font-stretch:normal;text-align:start;line-height:125%;writing-mode:lr-tb;text-anchor:start;fill:#efb3bb;fill-opacity:1;stroke:none;stroke-width:1px;stroke-linecap:butt;stroke-linejoin:miter;stroke-opacity:1;font-family:Copperplate Gothic Light" d="M 131.7123,157.37128 L 135.56093,147.34979 L 136.98964,147.34979 L 141.0912,157.37128 L 139.58046,157.37128 L 138.41152,154.33612 L 134.22109,154.33612 L 133.1205,157.37128 L 131.7123,157.37128 z M 134.6039,153.25604 L 138.00136,153.25604 L 136.95546,150.48065 C 136.63645,149.63756 136.39947,148.94485 136.24452,148.40253 C 136.11691,149.04511 135.9369,149.68313 135.70448,150.31659 L 134.6039,153.25604 z M 141.97988,157.37128 L 141.97988,147.34979 L 143.21034,147.34979 L 143.21034,157.37128 L 141.97988,157.37128 z M 145.13124,148.76483 L 145.13124,147.34979 L 146.36171,147.34979 L 146.36171,148.76483 L 145.13124,148.76483 z M 145.13124,157.37128 L 145.13124,150.11151 L 146.36171,150.11151 L 146.36171,157.37128 L 145.13124,157.37128 z M 153.21132,155.03339 L 154.48281,155.19061 C 154.28228,155.93345 153.91086,156.50995 153.36855,156.9201 C 152.82623,157.33026 152.13352,157.53534 151.29043,157.53534 C 150.22857,157.53534 149.38661,157.20835 148.76455,156.55438 C 148.14247,155.90041 147.83144,154.98326 147.83144,153.80292 C 147.83144,152.58157 148.14589,151.63365 148.7748,150.95917 C 149.4037,150.28469 150.21946,149.94745 151.22207,149.94745 C 152.19276,149.94745 152.98573,150.27786 153.60097,150.93866 C 154.2162,151.59947 154.52382,152.52916 154.52382,153.72772 C 154.52382,153.80064 154.52154,153.91002 154.51699,154.05585 L 149.10292,154.05585 C 149.1485,154.85338 149.37408,155.46405 149.77968,155.88788 C 150.18528,156.31171 150.69114,156.52362 151.29726,156.52362 C 151.74843,156.52362 152.13352,156.40513 152.45253,156.16815 C 152.77154,155.93117 153.02447,155.55292 153.21132,155.03339 L 153.21132,155.03339 z M 149.17128,153.04413 L 153.225,153.04413 C 153.1703,152.43346 153.01535,151.97545 152.76015,151.6701 C 152.36822,151.19615 151.86008,150.95917 151.23574,150.95917 C 150.67063,150.95917 150.19553,151.1483 149.81044,151.52655 C 149.42535,151.90481 149.2123,152.41067 149.17128,153.04413 L 149.17128,153.04413 z M 156.03457,157.37128 L 156.03457,150.11151 L 157.14199,150.11151 L 157.14199,151.14374 C 157.67519,150.34622 158.44537,149.94745 159.45253,149.94745 C 159.89003,149.94745 160.29221,150.02607 160.65908,150.18329 C 161.02593,150.34052 161.30051,150.54674 161.48281,150.80194 C 161.66509,151.05715 161.7927,151.36021 161.86562,151.71112 C 161.91119,151.93899 161.93397,152.33775 161.93398,152.90741 L 161.93398,157.37128 L 160.70351,157.37128 L 160.70351,152.95526 C 160.70351,152.45396 160.65565,152.07913 160.55996,151.83075 C 160.46425,151.58238 160.29449,151.38414 160.05068,151.23602 C 159.80686,151.08792 159.52089,151.01386 159.19277,151.01385 C 158.66868,151.01386 158.21637,151.1802 157.83584,151.51288 C 157.4553,151.84557 157.26503,152.47675 157.26503,153.40643 L 157.26503,157.37128 L 156.03457,157.37128 z" id="text2021"/>
  <g id="g2032" transform="matrix(0.2126486,-0.3508967,0.3368677,0.2009895,229.90225,-191.3282)">
    <path id="path2034" d="M -459.25,206.75 C -454.67043,207.07715 -449.76714,205.82383 -445.53654,208.01554 C -443.80635,210.56215 -443.3562,214.11727 -443.48339,217.22374 C -446.09564,221.31327 -451.24756,223.06509 -455.41536,225.29365 C -461.80973,228.23558 -468.90762,229.08121 -475.88211,228.75 C -480.26612,229.31774 -484.86983,227.85178 -487.33915,224.01058 C -490.39082,220.78062 -493.17129,217.25959 -494.85495,213.11689 C -496.64816,207.53895 -503.18949,210.42094 -507.56338,209.74087 C -514.26287,209.63575 -521.05451,210.10106 -527.69474,209.82147 C -532.26366,208.01311 -537.44969,205.7844 -539.41895,200.89941 C -542.48094,196.83766 -541.67985,191.44167 -541.67001,186.67668 C -541.64647,181.35581 -537.54584,177.3639 -533.88985,174.01017 C -528.39552,170.85238 -523.01573,167.15918 -516.9245,165.27552 C -511.53531,164.28242 -506.06416,165.17209 -500.66421,165.57322 C -496.20643,168.01447 -490.3796,168.70572 -486.83191,172.30993 C -482.26886,178.50032 -476.99131,184.27741 -473.926,191.42122 C -471.37008,196.49398 -468.54133,201.51094 -465.05246,205.97592 C -463.11831,206.23394 -461.18415,206.49197 -459.25,206.75 z" style="fill:#efb3bb;fill-opacity:1;fill-rule:evenodd;stroke:#000000;stroke-width:1px;stroke-linecap:butt;stroke-linejoin:miter;stroke-opacity:1"/>
    <path id="path2036" d="M -497.79288,202.75 C -505.10234,202.30017 -512.46769,202.2269 -519.72379,201.24807 C -524.11381,199.89568 -527.4375,196.41921 -530,192.75 C -530.91126,188.51885 -528.56644,184.37702 -525.04441,182.14366 C -520.7872,178.80376 -514.93008,177.2696 -509.63814,178.46112 C -505.3846,180.46293 -503.41811,185.09743 -500.56504,188.5784 C -496.83408,193.50358 -494.76571,199.36956 -492.07781,204.8729 C -490.79602,208.20837 -489.52291,211.45195 -487.26541,214.27159 C -484.87129,218.27393 -481.24174,222.57563 -476.16266,222.54867 C -468.99264,223.37402 -461.46079,223.01193 -454.89206,219.74344 C -451.58278,219.32687 -445.95912,214.71596 -451.232,212.56694 C -455.97452,211.48138 -460.91593,214.20543 -465.60445,212.23183 C -470.13619,210.6624 -471.36736,205.5683 -473.27989,201.70533 C -475.45164,196.78017 -478.96953,192.62183 -481.53898,187.90785 C -485.79542,180.71438 -491.82759,173.68778 -500.32736,171.75512 C -504.46344,170.71831 -508.74555,171.53775 -512.94633,171.07703 C -516.6092,170.97009 -519.94023,172.69551 -523.22693,174.089 C -526.77641,175.89318 -529.66556,178.68487 -532.73274,181.14968 C -535.48417,183.80934 -536.28459,187.82907 -535.77446,191.49786 C -536.31967,195.33471 -534.77366,199.09095 -531.59397,201.30129 C -526.58299,205.18678 -519.78663,204.23416 -513.86659,204.52541 C -507.79609,204.5671 -501.64994,204.35279 -495.66123,203.60852 C -496.33596,203.23255 -497.1116,203.11002 -497.79288,202.75 z" style="fill:#bfc5b4;fill-opacity:1;fill-rule:evenodd;stroke:#000000;stroke-width:1px;stroke-linecap:butt;stroke-linejoin:miter;stroke-opacity:1"/>
    <path id="path2038" d="M -501.51547,196.74843 C -506.83302,196.54459 -512.2227,197.27927 -517.48251,196.21518 C -520.13382,195.55628 -522.49453,194.12221 -524.88324,192.8508 C -526.674,191.72359 -526.94787,188.83895 -525.24267,187.50747 C -522.83357,185.26377 -519.81377,183.39503 -516.43836,183.27046 C -514.42671,183.04699 -512.24701,182.1281 -510.31552,183.17008 C -508.32341,184.60556 -506.10966,186.02145 -505.08491,188.35954 C -503.69003,191.0653 -502.75392,193.9732 -501.51547,196.74843 z" style="fill:#ffffff;fill-opacity:1;fill-rule:evenodd;stroke:#000000;stroke-width:1px;stroke-linecap:butt;stroke-linejoin:miter;stroke-opacity:1"/>
  </g>
  <path style="fill:url(#radialGradient2714);fill-opacity:1;fill-rule:evenodd;stroke:#000000;stroke-width:0.99999952px;stroke-linecap:butt;stroke-linejoin:miter;stroke-opacity:1" d="M 51.773896,105.16396 L 41.291254,93.635271 L 35.249515,57.26663 L 36.202907,46.109812 L 58.478195,40.071637 L 73.844462,35.009591 L 90.496975,32.656867 L 109.19048,35.797882 L 117.02167,43.90668 L 113.40706,57.969149 L 114.7027,70.976501 L 103.70353,82.649168 L 98.406126,88.637627 L 80.831104,98.528995 L 71.412999,102.20859 L 51.773896,105.16396 z" id="path2092"/>
  <path style="fill:#a4a59d;fill-opacity:1;fill-rule:evenodd;stroke:#000000;stroke-width:0.99999952px;stroke-linecap:butt;stroke-linejoin:miter;stroke-opacity:1" d="M 0.50000427,274.3466 C 1.2884904,273.70443 0.51220236,271.81603 0.53820889,270.65874 C 0.57796608,268.8898 2.9508308,266.61853 3.0991272,264.37946 C 3.4171756,259.57748 5.2509228,254.54157 7.1561773,252.03568 C 9.7378811,248.6401 22.45854,249.24252 28.635239,256.07943 C 41.265085,261.7404 52.310584,263.99644 65.611491,267.73741 C 83.396616,272.73957 99.228587,281.83734 115.89377,290.02165 C 136.36163,297.24459 156.73819,305.70084 174.09649,318.8853 C 187.92945,321.72282 194.38102,305.93907 209.34666,311.80234 C 224.57083,314.44947 239.89489,316.89096 255.37452,315.49787 C 304.51491,315.46475 358.12141,307.10509 405.44625,294.81684 C 421.98474,288.75519 436.43809,273.87263 448.06313,260.762 C 455.88453,279.72723 455.29166,309.90401 436.91536,322.63304 C 421.44426,334.18838 402.97271,341.13079 384.94925,347.57155 C 357.80583,354.0223 330.02455,357.49936 302.48779,361.84039 C 269.94593,365.98815 235.71599,367.1589 204.81428,354.45464 C 163.58102,341.88957 125.23415,319.05732 81.687725,315.03836 C 57.178829,307.6159 27.523252,307.68787 9.3251267,287.2 C 6.15714,283.08313 1.9086421,279.35151 0.50000427,274.3466 z" id="path3045" sodipodi:nodetypes="cssscsccccccccccccc"/>
  <path style="fill:none;fill-rule:evenodd;stroke:#000000;stroke-width:0.99999952px;stroke-linecap:butt;stroke-linejoin:miter;stroke-opacity:1" d="M 181.17742,322.26455 L 196.15919,312.10469 L 202.76077,310.35854 C 202.76077,310.35854 227.61956,317.24973 230.51139,317.55339 C 233.40324,317.85706 252.73446,316.29112 252.73446,316.29112 L 262.23774,316.96297 C 262.23774,316.96297 294.51715,316.13641 297.90996,314.94483 C 301.30279,313.75325 345.51191,308.86012 345.51191,308.86012 L 405.10399,294.70709 L 425.93185,285.49137 L 443.73912,269.80963 L 447.92299,260.45835 L 435.7248,240.63182 L 427.75527,234.63544 C 427.75527,234.63544 407.61872,228.22135 404.43091,225.82279 C 401.24309,223.42424 387.29256,215.42394 387.29256,215.42394 L 379.71765,212.22073 L 366.9664,202.62652 L 362.382,200.42528 L 356.90967,191.93938 L 351.40545,188.26889 C 351.40545,188.26889 347.18968,187.44004 344.348,186.85959 C 341.58414,186.29504 336.11714,179.41513 336.11714,179.41513 L 333.97617,177.19511 L 326.13069,159.78312 L 321.04184,157.90563 L 316.81465,160.84684 L 306.0033,154.26083 L 308.80418,148.87946 L 296.65256,138.4883 L 289.16862,140.97013 L 281.00177,133.57715 L 284.12655,130.61011 L 271.48999,119.91887 L 266.55795,122.08537 L 261.27395,116.7195 L 256.00613,111.46818 L 262.15896,106.07299 L 249.54903,92.437889 L 236.00082,82.244037 L 224.14517,73.947758 L 215.06732,75.230308 L 210.17926,75.92091 L 205.29119,76.611513 L 191.14334,67.214616 L 184.66905,61.719213 L 168.51728,58.303314 L 153.35978,56.883643 L 146.47367,57.350846 L 135.23842,59.691743 L 122.50532,65.934354 C 122.50532,65.934354 114.79201,70.079598 112.37057,73.105411 C 110.608,75.3079 102.95304,83.235612 102.95304,83.235612 L 93.449795,101.67189 L 91.035853,114.83317 L 91.316443,126.90151 L 84.621767,134.9697 L 75.331217,144.82912 L 71.232404,151.10609 L 58.260756,155.07547 L 48.180946,159.34852 L 34.913326,161.22302 L 28.530005,161.41264 L 18.374621,150.0272 L 17.388045,143.04424 C 17.388045,143.04424 15.801822,136.85824 15.407191,134.06505 C 15.012561,131.27187 14.124642,124.98721 13.730012,122.19402 C 13.335382,119.40084 12.250148,111.71958 12.250148,111.71958 L 13.111822,102.69491 L 19.548322,100.36107 L 33.616735,96.592853 C 33.616735,96.592853 35.594211,96.435669 40.383627,95.046769 C 45.173032,93.657872 54.170988,90.839941 60.455651,89.952022 C 66.740313,89.064104 68.136903,88.866789 68.136903,88.866789 L 78.389411,90.857253 L 86.48222,92.685011 L 94.945042,102.17287 L 86.48222,92.685011 L 68.535384,89.166608 L 60.423766,90.337952 L 50.897331,91.546854 L 28.925977,98.680049 L 13.062493,102.34576 L 12.299487,112.06873 L 8.3332677,129.36661 L 1.8128322,153.79158 L 1.2810756,175.23374 L 4.339462,196.88091 L 5.014683,211.74245 L 9.0413572,250.32548 L 20.653563,256.54041 L 41.097218,264.87501 L 49.690363,268.97739 L 70.16218,272.93335 C 70.16218,272.93335 70.927596,274.02625 96.981403,281.42505 C 99.695021,282.19566 113.92326,290.68643 113.92326,290.68643 L 137.54051,297.54442 L 181.17742,322.26455 z" id="path3047" sodipodi:nodetypes="cccsccscccccccsccccccscccccccccccccccccccccccccccccscccccccccccccssccccsscccccccccccccccccccccsccc"/>
  <path style="fill:#acab9c;fill-opacity:1;fill-rule:evenodd;stroke:#000000;stroke-width:0.99999952px;stroke-linecap:butt;stroke-linejoin:miter;stroke-opacity:1" d="M 91.499923,127.38492 L 90.581888,114.80177 L 91.925228,108.39565 L 94.325631,99.642385 L 103.34658,82.475281 L 106.73778,79.869939 C 106.73778,79.869939 113.20362,72.365049 115.03918,71.098462 C 116.87473,69.831878 118.87536,68.057275 121.20468,66.720927 C 123.534,65.384582 124.13046,64.75245 124.13046,64.75245 L 136.98574,59.080884 L 153.02611,56.685204 L 159.70672,57.018305 C 159.70672,57.018305 163.49268,57.472332 165.90614,58.098514 C 168.27385,58.712829 168.60652,58.343037 171.55176,58.870179 C 184.14302,61.123781 184.49116,60.841068 185.05103,61.289663 C 187.06669,62.904713 188.9111,65.703002 191.23499,67.892804 C 193.55888,70.082608 203.82247,76.219862 203.82247,76.219862 L 235.73,103.18721 L 245.1164,96.572323 L 249.85091,92.630517 L 261.70554,105.85582 L 252.21193,116.47099 L 261.15818,126.3226 L 271.03916,120.35815 C 271.03916,120.35815 285.08973,131.42756 285.03364,131.32907 C 284.47634,130.35047 270.80883,138.46012 270.80883,138.46012 L 282.64831,149.05772 L 290.047,140.90056 L 296.38182,137.99539 C 300.62977,142.17215 304.94083,145.40043 308.87119,149.15229 L 304.9474,152.30195 L 314.98795,159.6746 C 314.98795,159.6746 318.59335,159.39498 320.66751,158.01121 C 321.8576,157.21723 326.61668,160.51276 326.61668,160.51276 L 333.91475,176.82833 L 336.28054,180.01518 L 344.25407,186.93563 L 345.81313,186.57985 L 351.75968,187.96185 L 354.57077,188.63305 L 359.77663,196.9628 L 359.69599,203.52133 L 349.67564,207.45517 L 348.67721,214.647 L 343.37983,219.92807 L 339.35447,223.51854 C 339.35447,223.51854 331.23399,230.20571 328.76515,230.55452 C 326.29629,230.90332 326.79006,230.83356 322.8399,231.39166 C 318.88974,231.94975 313.95204,232.64736 313.95204,232.64736 L 307.5335,234.23635 L 300.19393,240.71729 C 300.19393,240.71729 299.0868,243.89547 293.2726,243.12342 C 284.36086,241.94006 284.45995,241.34673 284.45995,241.34673 L 281.43301,237.74538 L 285.4638,230.62877 L 289.27988,225.55698 L 290.41238,222.87885 L 279.84481,215.81023 L 276.67291,214.74749 C 276.67291,214.74749 269.80129,212.44142 269.65634,214.98003 C 269.51138,217.51864 266.6502,220.44235 266.6502,220.44235 L 262.3427,223.82287 L 257.405,224.52049 L 248.02882,222.3198 L 243.24153,216.95266 L 245.08252,212.15993 L 248.33506,206.66414 C 248.33506,206.66414 247.56225,204.75882 251.44264,203.70696 C 255.32304,202.6551 254.01407,202.33507 254.01407,202.33507 L 256.59506,200.9645 L 250.53995,199.05741 L 242.67284,195.12327 C 242.67284,195.12327 242.5711,194.38421 239.74801,195.79032 C 236.92492,197.19643 236.78539,196.20889 233.9623,197.615 C 231.1392,199.0211 227.3714,201.48153 227.3714,201.48153 L 222.72261,204.65646 L 218.4233,205.26388 L 215.05408,202.80455 L 208.14878,197.82305 C 208.14878,197.82305 210.09799,194.587 211.23049,191.90886 C 212.36299,189.23073 215.01162,186.43935 217.27118,184.60924 C 219.53075,182.77912 214.69019,182.45308 217.12283,183.62563 C 218.975,184.51838 213.67517,182.3507 213.67517,182.3507 L 205.71054,179.44696 C 205.71054,179.44696 205.147,179.02296 202.11462,178.94775 C 199.08224,178.87255 199.57057,182.32895 197.66525,183.10176 C 195.75994,183.87457 192.01906,185.91398 192.01906,185.91398 C 192.01906,185.91398 188.77196,187.88362 186.23334,187.73865 C 183.69473,187.59369 180.38331,185.54341 180.38331,185.54341 L 176.58356,180.03674 L 176.80372,174.46575 L 182.73439,170.10246 L 186.4055,167.56929 L 189.58285,165.10588 L 181.89725,164.17722 L 176.88988,162.62305 L 173.96423,161.51615 L 168.71587,159.99603 L 161.73334,160.47891 L 158.83504,164.9174 L 153.8919,169.14117 L 147.96667,169.9783 L 144.86997,165.88319 L 142.72071,160.05406 L 140.88203,154.88354 L 143.12126,150.0332 L 146.26403,145.4556 L 149.27992,141.79754 L 151.22242,139.04829 L 152.73564,136.68344 L 144.14611,132.24252 L 136.53572,128.28148 L 128.50131,124.88398 C 128.50131,124.88398 122.29702,123.74604 120.25219,123.53131 C 118.20734,123.31659 107.55914,122.8065 107.55914,122.8065 L 95.917949,125.96208 L 91.499923,127.38492 z" id="path3049" sodipodi:nodetypes="ccccccssccccssssccccccccscccccccscccccccccccccsscccscccccccscccccccsccccsscccccsssccsscscccccccccccccccccccccccccsccc"/>
  <path style="fill:#bfc5b4;fill-opacity:1;fill-rule:evenodd;stroke:#000000;stroke-width:0.99999952px;stroke-linecap:butt;stroke-linejoin:miter;stroke-opacity:1" d="M 300.04584,241.15922 L 307.84969,234.01316 L 316.21705,227.2911 L 323.06551,222.29452 C 323.06551,222.29452 336.02176,212.406 337.92707,211.63319 C 339.83239,210.86037 350.11507,206.54838 350.11507,206.54838 C 350.11507,206.54838 350.57373,206.45806 352.51802,205.82398 C 353.92732,205.36439 355.72041,204.59495 356.63361,204.38435 C 358.72438,203.90216 359.71278,203.64021 359.71278,203.64021 L 359.63711,195.97527 L 354.60565,188.87993 L 352.49104,188.17144 L 349.35402,187.35559 L 345.83326,186.75649 L 343.01271,188.81242 L 338.34612,191.42895 L 335.02926,192.90481 L 329.87684,195.64727 L 314.48933,204.36841 L 292.74714,218.01636 L 290.13061,222.66685 L 285.57116,229.60635 L 281.433,237.74539 L 284.21305,241.38163 L 298.91335,243.83735 L 300.04584,241.15922 z" id="path3051" sodipodi:nodetypes="ccccscsscccccccccccccccccc"/>
  <path style="fill:#bfc5b4;fill-opacity:1;fill-rule:evenodd;stroke:#000000;stroke-width:0.99999952px;stroke-linecap:butt;stroke-linejoin:miter;stroke-opacity:1" d="M 275.34166,214.50323 C 275.34166,214.50323 278.74217,208.32491 278.894,206.87899 C 279.04583,205.43307 283.34581,198.05933 283.34581,198.05933 L 289.46936,188.46929 L 297.6138,178.05957 L 303.8075,171.48663 L 312.4225,163.14713 L 315.11782,160.80626 L 321.23401,157.44885 C 323.67805,157.9337 321.26033,157.49378 324.10458,158.284 L 326.38272,159.85038 L 334.87783,169.58973 C 334.87783,169.58973 335.29371,169.99479 334.25959,172.2478 C 331.72125,177.778 332.36279,176.22127 333.78742,178.28586 L 334.09207,177.89144 L 332.32359,176.71683 L 331.50197,175.94262 L 325.7155,177.82945 L 317.24552,188.46228 L 311.0233,197.35401 L 299.27911,213.79214 L 292.54086,217.77113 L 290.24097,221.65726 L 280.57502,216.25666 L 275.34166,214.50323 z" id="path3053" sodipodi:nodetypes="csccccccccccscccccccccccc"/>
  <path style="fill:#bfc5b4;fill-opacity:1;fill-rule:evenodd;stroke:#000000;stroke-width:0.99999952px;stroke-linecap:butt;stroke-linejoin:miter;stroke-opacity:1" d="M 242.85773,215.92746 L 244.83164,209.11293 L 248.81703,203.5669 L 254.85296,200.36881 L 257.02952,198.60104 L 270.49859,191.03733 C 276.78892,188.10483 274.49282,191.0682 278.85432,189.11146 L 292.47385,183.51522 L 293.27566,183.65643 L 290.51936,186.73632 L 283.944,197.12555 L 278.41528,207.55925 L 274.36555,210.88425 L 270.23837,213.89769 C 270.23837,213.89769 266.71135,220.13842 261.00515,223.08502 C 258.49868,224.37933 258.72459,224.66014 251.08619,223.47915 L 246.93346,220.75449 L 242.85773,215.92746 z" id="path3055" sodipodi:nodetypes="ccccccccccccccsccc"/>
  <path style="fill:#bfc5b4;fill-opacity:1;fill-rule:evenodd;stroke:#000000;stroke-width:0.99999952px;stroke-linecap:butt;stroke-linejoin:miter;stroke-opacity:1" d="M 312.50445,194.83683 L 325.07293,192.05386 L 342.45156,188.33882 L 344.853,187.11686 L 342.72782,185.79103 L 332.03581,175.31508 L 325.81847,177.71574 L 322.92993,180.3935 C 319.60226,185.06054 320.34185,183.62985 312.50445,194.83683 z" id="path3057" sodipodi:nodetypes="ccccccccc"/>
  <path style="fill:#bfc5b4;fill-opacity:1;fill-rule:evenodd;stroke:#000000;stroke-width:0.99999952px;stroke-linecap:butt;stroke-linejoin:miter;stroke-opacity:1" d="M 256.31424,200.75438 L 263.10473,197.28625 L 274.12154,191.44157 L 280.44829,188.02823 L 282.82488,181.64626 L 288.16465,171.32295 L 293.18299,164.0668 C 297.62814,159.80856 297.32643,160.1239 299.39814,158.15245 L 302.15148,156.25257 L 305.29507,153.54078 L 307.30691,151.74901 L 308.36937,148.57514 C 308.36937,148.57514 307.7495,146.59497 304.66864,144.06173 C 301.96502,141.83869 300.28388,140.79879 300.28388,140.79879 L 296.30328,137.51069 L 289.6922,141.1414 L 282.6639,148.42969 L 273.19262,158.07967 L 267.36678,168.47032 C 267.36678,168.47032 264.03782,175.77358 262.34178,178.0277 C 260.64575,180.28183 256.19282,187.42344 256.19282,187.42344 L 252.48895,195.59038 L 251.30857,199.19327 L 256.31424,200.75438 z" id="path3059" sodipodi:nodetypes="ccccccccccccsccccccscccc"/>
  <path style="fill:#bfc5b4;fill-opacity:1;fill-rule:evenodd;stroke:#000000;stroke-width:0.99999952px;stroke-linecap:butt;stroke-linejoin:miter;stroke-opacity:1" d="M 203.37257,200.43197 C 207.98125,203.18743 212.37293,205.87683 219.27878,207.75424 L 224.4357,205.0058 L 234.26858,199.71679 L 243.42968,195.19889 L 254.85025,189.74617 L 263.22495,176.60719 L 266.90583,168.78659 L 236.08164,174.4419 L 224.04977,177.35955 L 219.28104,182.81775 L 208.36221,191.16203 L 203.37257,200.43197 z" id="path3061" sodipodi:nodetypes="ccccccccccccc"/>
  <path style="fill:#bfc5b4;fill-opacity:1;fill-rule:evenodd;stroke:#000000;stroke-width:0.99999952px;stroke-linecap:butt;stroke-linejoin:miter;stroke-opacity:1" d="M 283.67498,180.1441 L 292.53831,176.56713 L 299.67518,175.37201 L 305.41383,169.35473 L 311.08569,163.9787 L 315.58281,160.45794 C 312.85683,160.30573 298.68253,162.64382 292.73555,164.08731 L 289.15271,169.95026 L 283.67498,180.1441 z" id="path3063" sodipodi:nodetypes="ccccccccc"/>
  <path style="fill:#bfc5b4;fill-opacity:1;fill-rule:evenodd;stroke:#000000;stroke-width:0.99999952px;stroke-linecap:butt;stroke-linejoin:miter;stroke-opacity:1" d="M 217.35173,176.29138 L 218.62375,174.60079 L 225.83461,163.25768 L 235.3748,150.57823 L 244.06424,140.78891 L 251.62119,133.67773 L 259.31767,127.55409 L 266.15719,122.89985 C 266.15719,122.89985 267.85943,122.06646 269.94187,120.76499 C 272.05627,119.44355 271.64306,119.40549 271.64306,119.40549 L 278.58827,125.3351 L 282.03221,128.82293 L 284.39841,131.26521 L 282.63907,133.90133 L 269.94956,138.64263 L 261.89337,149.12323 L 251.72031,162.19852 L 245.07259,172.8785 L 241.89797,173.57884 L 224.22267,180.3656 L 218.57527,183.16927 L 213.14651,182.17357 L 217.35173,176.29138 z" id="path3065" sodipodi:nodetypes="ccccccccscccccccccccccc"/>
  <path style="fill:#bfc5b4;fill-opacity:1;fill-rule:evenodd;stroke:#000000;stroke-width:0.99999952px;stroke-linecap:butt;stroke-linejoin:miter;stroke-opacity:1" d="M 190.43574,187.65521 L 198.76667,182.41055 L 200.13954,179.22681 L 205.01291,174.50927 C 205.01291,174.50927 212.07066,170.994 214.04573,170.71495 C 216.02081,170.43591 221.94605,169.59877 221.94605,169.59877 L 224.96011,165.34778 L 229.08443,159.52497 L 234.15904,152.08234 L 237.78222,147.71997 L 234.03845,148.2489 L 220.06614,151.29415 L 206.2959,154.6293 L 196.19722,159.49649 L 187.33735,164.63307 L 185.81616,164.56972 L 176.52152,173.63908 C 176.46511,178.99475 176.99144,180.88103 176.38931,179.30143 C 177.04027,180.43567 176.09566,181.66547 176.44572,181.66003 C 177.03822,183.20224 178.99955,183.71273 180.38898,185.46695 L 185.59448,187.67208 L 190.43574,187.65521 z" id="path3067" sodipodi:nodetypes="ccccsccccccccccccccccc"/>
  <path style="fill:#bfc5b4;fill-opacity:1;fill-rule:evenodd;stroke:#000000;stroke-width:0.99999952px;stroke-linecap:butt;stroke-linejoin:miter;stroke-opacity:1" d="M 254.82537,157.9818 C 260.78906,150.9962 257.53436,154.29775 261.25883,150.06986 L 264.57504,145.47234 L 273.64085,146.98412 L 281.98186,148.83547 L 279.11355,151.76554 L 277.20044,154.30817 L 274.64962,157.69835 L 271.03597,162.50111 L 266.15588,163.1779 L 250.55762,164.47632 C 251.18945,163.67619 252.88235,160.95343 254.82537,157.9818 z" id="path3069" sodipodi:nodetypes="cccccccccccc"/>
  <path style="fill:#bfc5b4;fill-opacity:1;fill-rule:evenodd;stroke:#000000;stroke-width:0.99999952px;stroke-linecap:butt;stroke-linejoin:miter;stroke-opacity:1" d="M 187.27566,164.74071 L 195.1434,152.51989 L 203.47125,139.98158 L 210.486,130.65858 L 220.65156,118.61809 L 228.5838,110.42788 L 234.81549,104.49779 L 242.53243,98.357863 L 246.3909,95.287898 L 249.78926,92.535422 L 262.07184,106.20154 L 256.39149,111.93646 L 252.36912,116.15678 L 240.50846,126.92187 L 235.47951,132.42955 L 230.20301,137.97221 L 223.68607,145.45749 L 219.46969,151.35533 L 206.5948,154.94172 L 196.3702,159.41608 L 187.27566,164.74071 z" id="path3071" sodipodi:nodetypes="ccccccccccccccccccccc"/>
  <path style="fill:#bfc5b4;fill-opacity:1;fill-rule:evenodd;stroke:#000000;stroke-width:0.99999952px;stroke-linecap:butt;stroke-linejoin:miter;stroke-opacity:1" d="M 140.37136,155.07557 L 139.57858,152.85878 L 145.82337,168.06977 L 153.90881,169.15909 L 158.69184,164.74465 L 161.80625,160.32618 L 174.9958,149.30682 L 183.20782,143.09695 L 190.99471,137.4521 L 199.98161,133.15261 L 209.82977,131.55469 L 214.66098,125.78396 L 228.70955,110.01716 L 218.40235,109.84649 L 209.49085,111.10553 L 198.10394,112.71431 L 190.18262,113.83347 L 179.14544,117.91766 L 166.9673,128.22264 L 153.165,136.38542 L 149.42841,141.69782 L 146.2083,145.73828 L 143.05365,150.23113 L 140.37136,155.07557 z" id="path3073" sodipodi:nodetypes="cccccccccccccccccccccccc"/>
  <path style="fill:#bfc5b4;fill-opacity:1;fill-rule:evenodd;stroke:#000000;stroke-width:0.99999952px;stroke-linecap:butt;stroke-linejoin:miter;stroke-opacity:1" d="M 235.79175,132.08264 C 235.60995,132.15443 235.83773,131.98688 243.50098,134.20704 L 248.9861,135.753 C 248.9861,135.753 251.74262,133.38199 253.44202,131.90988 C 254.92119,130.62854 258.37265,128.26748 258.37265,128.26748 L 260.67576,126.24603 C 260.21131,124.85373 260.464,125.28104 258.15586,122.94214 L 253.71343,118.03528 C 253.71343,118.03528 252.42309,116.16821 252.06581,116.48274 C 251.18257,117.2603 250.78917,117.55576 250.78917,117.55576 L 244.29267,123.38325 L 239.56085,127.80096 L 235.79175,132.08264 z" id="path3075" sodipodi:nodetypes="cccsccccscccc"/>
  <path style="fill:#acab9c;fill-opacity:1;fill-rule:evenodd;stroke:#000000;stroke-width:0.99999952px;stroke-linecap:butt;stroke-linejoin:miter;stroke-opacity:1" d="M 113.93981,289.98168 L 139.37719,298.17094 L 124.25198,282.09758 L 114.06958,270.68187 C 114.06958,270.68187 111.37561,266.77771 108.78055,263.5737 C 106.18549,260.3697 103.39259,255.76539 103.39259,255.76539 L 100.10509,247.66031 L 98.62129,237.15801 L 102.23639,227.36358 L 114.55782,213.48259 C 114.55782,213.48259 121.07246,203.99262 123.77416,202.89679 C 126.47585,201.80096 136.1945,189.71594 136.1945,189.71594 L 143.81269,177.92769 L 146.0275,168.3311 L 141.78596,154.73704 L 134.35358,151.41307 L 123.16656,142.99581 L 113.87444,137.88147 L 103.67662,136.46574 L 92.366568,142.9733 L 84.353672,151.33594 L 69.536116,162.71309 L 46.531569,181.85262 L 17.484354,204.34533 L 14.689694,192.77851 C 12.761817,189.24219 15.117793,200.23135 5.9284778,183.83999 L 1.6668608,175.15841 L 5.129061,199.66377 L 5.5131718,209.96437 L 9.1006126,250.51993 L 26.786858,259.44722 L 42.228107,265.12104 L 51.371852,269.18515 L 71.215723,273.16577 L 98.551862,282.15793 L 113.93981,289.98168 z" id="path3077" sodipodi:nodetypes="ccccscccccsccccccccccccccccccccccccc"/>
  <path style="fill:#fdfcf4;fill-opacity:1;fill-rule:evenodd;stroke:#000000;stroke-width:0.99999952px;stroke-linecap:butt;stroke-linejoin:miter;stroke-opacity:1" d="M 182.47229,321.9586 C 186.10409,319.93059 191.19196,315.17204 196.31054,312.68149 L 203.27941,310.18201 L 214.83573,313.34646 L 224.18872,300.9158 L 238.92859,280.14959 L 250.47721,265.38886 L 263.37118,249.42812 L 243.80497,236.03361 L 227.20381,225.75495 L 207.28241,213.42055 L 190.89108,204.62713 L 168.35438,191.6523 L 144.01493,178.42721 L 136.99746,189.51797 L 126.72698,200.81584 L 123.32862,203.56832 L 114.01332,214.47875 C 114.01332,214.47875 105.15814,225.0717 103.38765,226.83674 C 101.61716,228.60178 99.413353,236.23513 99.413353,236.23513 L 101.02213,247.62204 L 104.36643,256.99637 L 116.64629,272.43026 L 130.16386,287.68927 L 139.90653,297.67451 L 152.90495,305.68488 L 167.38862,313.4854 L 182.47229,321.9586 z" id="path3079" sodipodi:nodetypes="ccccccccccccccccccsccccccccc"/>
  <g id="g3081" transform="matrix(0.990166,-0.139894,0.139894,0.990166,632.88499,-12.338656)">
    <path id="path3083" d="M -459.25,206.75 C -454.67043,207.07715 -449.76714,205.82383 -445.53654,208.01554 C -443.80635,210.56215 -443.3562,214.11727 -443.48339,217.22374 C -446.09564,221.31327 -451.24756,223.06509 -455.41536,225.29365 C -461.80973,228.23558 -468.90762,229.08121 -475.88211,228.75 C -480.26612,229.31774 -484.86983,227.85178 -487.33915,224.01058 C -490.39082,220.78062 -493.17129,217.25959 -494.85495,213.11689 C -496.64816,207.53895 -503.18949,210.42094 -507.56338,209.74087 C -514.26287,209.63575 -521.05451,210.10106 -527.69474,209.82147 C -532.26366,208.01311 -537.44969,205.7844 -539.41895,200.89941 C -542.48094,196.83766 -541.67985,191.44167 -541.67001,186.67668 C -541.64647,181.35581 -537.54584,177.3639 -533.88985,174.01017 C -528.39552,170.85238 -523.01573,167.15918 -516.9245,165.27552 C -511.53531,164.28242 -506.06416,165.17209 -500.66421,165.57322 C -496.20643,168.01447 -490.3796,168.70572 -486.83191,172.30993 C -482.26886,178.50032 -476.99131,184.27741 -473.926,191.42122 C -471.37008,196.49398 -468.54133,201.51094 -465.05246,205.97592 C -463.11831,206.23394 -461.18415,206.49197 -459.25,206.75 z" style="fill:#efb3bb;fill-opacity:1;fill-rule:evenodd;stroke:#000000;stroke-width:1px;stroke-linecap:butt;stroke-linejoin:miter;stroke-opacity:1"/>
    <path id="path3085" d="M -497.79288,202.75 C -505.10234,202.30017 -512.46769,202.2269 -519.72379,201.24807 C -524.11381,199.89568 -527.4375,196.41921 -530,192.75 C -530.91126,188.51885 -528.56644,184.37702 -525.04441,182.14366 C -520.7872,178.80376 -514.93008,177.2696 -509.63814,178.46112 C -505.3846,180.46293 -503.41811,185.09743 -500.56504,188.5784 C -496.83408,193.50358 -494.76571,199.36956 -492.07781,204.8729 C -490.79602,208.20837 -489.52291,211.45195 -487.26541,214.27159 C -484.87129,218.27393 -481.24174,222.57563 -476.16266,222.54867 C -468.99264,223.37402 -461.46079,223.01193 -454.89206,219.74344 C -451.58278,219.32687 -445.95912,214.71596 -451.232,212.56694 C -455.97452,211.48138 -460.91593,214.20543 -465.60445,212.23183 C -470.13619,210.6624 -471.36736,205.5683 -473.27989,201.70533 C -475.45164,196.78017 -478.96953,192.62183 -481.53898,187.90785 C -485.79542,180.71438 -491.82759,173.68778 -500.32736,171.75512 C -504.46344,170.71831 -508.74555,171.53775 -512.94633,171.07703 C -516.6092,170.97009 -519.94023,172.69551 -523.22693,174.089 C -526.77641,175.89318 -529.66556,178.68487 -532.73274,181.14968 C -535.48417,183.80934 -536.28459,187.82907 -535.77446,191.49786 C -536.31967,195.33471 -534.77366,199.09095 -531.59397,201.30129 C -526.58299,205.18678 -519.78663,204.23416 -513.86659,204.52541 C -507.79609,204.5671 -501.64994,204.35279 -495.66123,203.60852 C -496.33596,203.23255 -497.1116,203.11002 -497.79288,202.75 z" style="fill:#bfc5b4;fill-opacity:1;fill-rule:evenodd;stroke:#000000;stroke-width:1px;stroke-linecap:butt;stroke-linejoin:miter;stroke-opacity:1"/>
    <path id="path3087" d="M -501.51547,196.74843 C -506.83302,196.54459 -512.2227,197.27927 -517.48251,196.21518 C -520.13382,195.55628 -522.49453,194.12221 -524.88324,192.8508 C -526.674,191.72359 -526.94787,188.83895 -525.24267,187.50747 C -522.83357,185.26377 -519.81377,183.39503 -516.43836,183.27046 C -514.42671,183.04699 -512.24701,182.1281 -510.31552,183.17008 C -508.32341,184.60556 -506.10966,186.02145 -505.08491,188.35954 C -503.69003,191.0653 -502.75392,193.9732 -501.51547,196.74843 z" style="fill:#ffffff;fill-opacity:1;fill-rule:evenodd;stroke:#000000;stroke-width:1px;stroke-linecap:butt;stroke-linejoin:miter;stroke-opacity:1"/>
  </g>
  <path style="fill:#bfc5b4;fill-opacity:1;fill-rule:evenodd;stroke:#000000;stroke-width:0.99999952px;stroke-linecap:butt;stroke-linejoin:miter;stroke-opacity:1" d="M 213.37184,312.66825 L 262.18624,248.91397 L 276.06899,254.41928 L 292.22058,259.51751 L 311.29666,256.82238 L 331.32383,246.61269 L 345.3379,236.58162 L 364.70728,226.46487 L 376.36898,218.77893 L 379.69639,213.0228 L 392.60802,218.69391 L 405.02497,227.00349 L 427.60705,234.20249 L 435.20653,240.2648 L 439.18058,245.46377 L 442.24973,250.39756 L 447.95051,260.23206 L 447.65016,264.63913 L 444.49775,269.49405 L 424.82804,285.86341 L 405.59668,294.65252 C 405.59668,294.65252 345.60163,310.31958 342.31265,310.78426 C 339.02367,311.24894 288.50079,316.51279 292.14904,315.99735 C 296.75361,315.3468 262.24413,317.50816 262.24413,317.50816 L 254.75394,317.76519 L 231.16299,317.78929 L 222.82103,316.2079 L 213.37184,312.66825 z" id="path3089" sodipodi:nodetypes="cccccccccccccccccccccssccccc"/>
  <path style="fill:none;fill-rule:evenodd;stroke:#000000;stroke-width:0.99999952px;stroke-linecap:butt;stroke-linejoin:miter;stroke-opacity:1" d="M 126.10988,81.037481 L 144.54265,69.040274 L 153.94491,64.357262 L 163.53304,60.989841 L 168.79675,58.626406 L 178.40843,59.837027 L 184.99383,61.264736 L 191.3189,67.615233 L 204.34208,76.232182 L 224.45695,93.308788 L 206.50335,99.199962 C 206.50335,99.199962 192.31064,103.21793 189.86533,104.90527 C 187.42002,106.5926 171.81155,114.83615 171.81155,114.83615 L 153.794,101.27951 L 143.94155,93.278534 L 126.10988,81.037481 z" id="path3091" sodipodi:nodetypes="cccccccccccscccc"/>
  <path style="fill:#acab9c;fill-opacity:1;fill-rule:evenodd;stroke:#000000;stroke-width:0.99999952px;stroke-linecap:butt;stroke-linejoin:miter;stroke-opacity:1" d="M 1.6371282,169.26402 L 1.8174818,153.55221 L 3.0443336,148.65478 L 6.0522133,137.42845 L 9.8653627,123.11888 L 12.34276,112.9759 L 15.724832,135.23514 L 16.864917,142.474 L 18.2337,150.06169 L 28.360913,161.50979 L 18.544449,170.82956 L 12.002157,175.65734 C 8.3889173,173.45932 5.990188,172.14202 1.6371282,169.26402 z" id="path3093" sodipodi:nodetypes="ccccccccccccc"/>
  <path style="fill:#fdfcf4;fill-opacity:1;fill-rule:evenodd;stroke:#000000;stroke-width:0.99999952px;stroke-linecap:butt;stroke-linejoin:miter;stroke-opacity:1" d="M 81.093776,138.24933 L 91.463589,143.42357 L 84.346884,151.39985 L 64.725139,166.98132 L 16.967592,205.04013 L 1.2383385,174.69621 L 1.6443154,168.77734 L 11.366416,175.46885 L 28.826788,161.37879 L 47.864339,158.45189 L 57.303532,154.74621 L 74.92306,145.14061 L 81.054356,138.2942 L 81.093776,138.24933 z" id="path3095" sodipodi:nodetypes="cccccccccccccc"/>
  <path style="fill:#bcb5af;fill-opacity:1;fill-rule:evenodd;stroke:#000000;stroke-width:0.99999952px;stroke-linecap:butt;stroke-linejoin:miter;stroke-opacity:1" d="M 80.846034,138.37359 L 90.960315,127.6935 L 107.31077,122.53695 L 128.43372,124.29679 L 152.49638,136.79008 L 148.36822,142.82911 L 141.33791,154.93807 L 141.53305,154.6402 L 145.64833,167.64582 L 143.23083,178.66174 L 207.94201,215.37667 L 249.80381,241.47013 L 261.88187,249.72643 L 262.36002,249.53669 L 281.81625,256.57963 L 292.32707,260.38442 L 310.78742,256.51386 L 330.79834,247.04484 L 347.22475,235.71014 L 365.77455,225.97312 L 376.14914,218.81436 L 379.48102,212.17622 L 366.07841,201.26054 L 362.1602,200.39087 L 359.6242,196.08926 L 359.82191,203.35609 L 358.35406,203.77984 L 356.63192,204.38835 L 349.79367,206.88222 L 348.98459,214.58719 L 330.2931,230.03723 L 310.82329,233.2624 L 307.63308,234.18754 L 300.01644,240.71943 L 298.91676,243.00967 L 298.58306,244.00565 L 284.20452,241.29295 L 281.75255,237.36962 L 289.7157,221.53765 C 289.7157,221.53765 280.88845,216.14297 278.83077,215.01044 C 276.7731,213.8779 274.38173,213.74134 274.38173,213.74134 L 270.1521,214.02534 L 266.49243,218.55965 L 261.55347,222.32587 C 261.55347,222.32587 258.721,224.19506 255.33365,223.7248 C 251.9463,223.25453 246.87464,220.4237 247.44234,220.74849 L 244.89191,216.95893 L 245.95322,210.64157 L 249.28254,205.66424 L 255.99923,201.15717 L 243.95781,194.82143 L 224.03895,205.06792 L 212.64207,205.79847 L 206.79291,201.17625 L 208.22833,191.83734 L 218.84852,183.09836 L 205.3739,178.98513 L 200.22461,179.14896 L 199.08199,182.3635 L 190.05209,187.70241 L 182.56022,186.50617 L 180.47112,185.34998 L 176.87436,181.73635 L 176.72032,173.93024 L 186.30119,164.51155 L 179.95876,163.27274 L 169.50098,159.76889 L 161.99316,160.35521 L 157.23557,165.29712 L 152.08115,169.10905 L 146.03699,168.30254 C 143.89511,164.3354 142.77198,157.01496 140.73868,154.90286 L 130.01404,148.71508 C 126.64413,146.19592 119.96075,141.79858 119.57896,141.38209 L 113.52946,138.02822 L 103.15778,136.79501 L 91.365471,143.55979 L 80.846034,138.37359 z" id="path3097" sodipodi:nodetypes="cccccccccccccccccccccccccccccccccccccccsccccsccccccccccccccccccccccccccccccccc"/>
  <path style="fill:#efb3bb;fill-opacity:1;fill-rule:evenodd;stroke:#000000;stroke-width:0.99999952px;stroke-linecap:butt;stroke-linejoin:miter;stroke-opacity:1" d="M 9.4937763,267.41347 L 9.4937763,267.41347 L 22.821062,276.26537 L 37.751669,284.1861 L 65.412242,291.40595 L 117.07715,305.10177 L 155.31812,316.5535 L 168.46953,321.71631 L 178.59043,324.90148 L 170.5355,336.57781 L 146.84989,327.84753 L 128.70896,322.91525 L 108.91259,315.76336 L 65.081392,305.85376 C 65.081392,305.85376 41.65206,300.64089 37.75901,299.06055 C 30.972127,296.30549 20.918873,291.29448 20.918873,291.29448 L 9.6579041,282.82158 L 2.3556271,273.34868 L 9.4937763,267.41347 z" id="path3099" sodipodi:nodetypes="ccccccccccccccscccc"/>
  <path style="fill:#bcb5af;fill-opacity:1;fill-rule:evenodd;stroke:#000000;stroke-width:0.99999952px;stroke-linecap:butt;stroke-linejoin:miter;stroke-opacity:1" d="M 203.41172,75.750342 L 224.70665,73.690554 L 249.64021,92.348071 L 261.99226,105.9016 L 257.53297,111.27579 L 266.65082,122.08521 L 271.15953,118.95626 L 282.27353,128.7465 L 284.52809,130.91234 L 282.54338,133.83513 L 289.77296,141.3532 L 281.78976,148.64851 L 270.61167,138.36739 L 282.77595,133.80228 L 284.67846,131.1283 L 281.23095,127.92689 L 276.61171,123.73983 L 271.37693,119.01481 L 261.52924,126.12971 L 252.31025,116.28342 L 257.3004,111.30865 L 262.45739,105.83589 L 249.65647,92.463126 L 236.08931,103.45503 L 203.41172,75.750342 z" id="path3101" sodipodi:nodetypes="ccccccccccccccccccccccccc"/>
  <path style="fill:none;fill-rule:evenodd;stroke:#000000;stroke-width:0.96322566px;stroke-linecap:butt;stroke-linejoin:miter;stroke-opacity:1" d="M 180.99241,321.56318 L 167.84355,341.24864" id="path3103"/>
  <path style="fill:none;fill-rule:evenodd;stroke:#000000;stroke-width:0.99999952;stroke-linecap:butt;stroke-linejoin:miter;stroke-miterlimit:4;stroke-dasharray:3.99999808, 7.99999616;stroke-dashoffset:0;stroke-opacity:1" d="M 285.36626,257.58227 L 281.54582,267.31379 L 282.4869,273.97473 L 290.6001,274.82668 L 310.6383,272.39526 L 347.18831,268.03063 L 366.05536,262.96718 C 366.05536,262.96718 382.79293,259.80316 384.2495,258.79809 C 385.70605,257.79302 396.79206,254.22854 396.79206,254.22854 L 410.34401,248.31746 L 422.27765,239.43789 L 422.73347,234.17815 L 422.51203,232.61087 L 431.51527,236.93384 L 433.52109,242.64507 C 433.52109,242.64507 425.39926,247.38933 423.94269,248.3944 C 422.48614,249.39947 411.39581,255.76205 411.39581,255.76205 C 411.39581,255.76205 401.08913,262.01391 399.24075,263.07433 C 397.39236,264.13477 381.54916,267.97172 377.74167,269.30893 C 373.93418,270.64615 363.63182,274.09991 359.71361,274.65349 C 355.7954,275.20706 332.73337,278.86499 332.73337,278.86499 L 305.80847,283.46831 L 287.61866,284.8393 C 287.61866,284.8393 280.85132,282.19865 279.11796,281.24462 C 277.3846,280.29058 273.53039,275.63978 273.53039,275.63978 L 272.08246,271.04865 L 273.16016,261.70464 L 276.30335,255.66557 L 276.92092,254.3794 L 285.36626,257.58227 z" id="path3105"/>
  <path sodipodi:type="arc" style="fill:#bcb5af;fill-opacity:1;stroke-width:1;stroke-miterlimit:4;stroke-dasharray:4, 8;stroke-dashoffset:0" id="path3107" sodipodi:cx="359.625" sodipodi:cy="242.75" sodipodi:rx="1.625" sodipodi:ry="1.25" d="M 361.25,242.75 A 1.625,1.25 0 1 1 358,242.75 A 1.625,1.25 0 1 1 361.25,242.75 z" transform="matrix(0.990166,-0.139894,0.139894,0.990166,-36.141079,54.158032)"/>
  <path sodipodi:type="arc" style="fill:#bcb5af;fill-opacity:1;stroke-width:1;stroke-miterlimit:4;stroke-dasharray:4, 8;stroke-dashoffset:0" id="path3109" sodipodi:cx="359.625" sodipodi:cy="242.75" sodipodi:rx="1.625" sodipodi:ry="1.25" d="M 361.25,242.75 A 1.625,1.25 0 1 1 358,242.75 A 1.625,1.25 0 1 1 361.25,242.75 z" transform="matrix(0.990166,-0.139894,0.139894,0.990166,-15.137513,41.09127)"/>
  <path sodipodi:type="arc" style="fill:#bcb5af;fill-opacity:1;stroke-width:1;stroke-miterlimit:4;stroke-dasharray:4, 8;stroke-dashoffset:0" id="path3111" sodipodi:cx="359.625" sodipodi:cy="242.75" sodipodi:rx="1.625" sodipodi:ry="1.25" d="M 361.25,242.75 A 1.625,1.25 0 1 1 358,242.75 A 1.625,1.25 0 1 1 361.25,242.75 z" transform="matrix(0.990166,-0.139894,0.139894,0.990166,-3.8123702,33.684114)"/>
  <path sodipodi:type="arc" style="fill:#bcb5af;fill-opacity:1;stroke-width:1;stroke-miterlimit:4;stroke-dasharray:4, 8;stroke-dashoffset:0" id="path3113" sodipodi:cx="359.625" sodipodi:cy="242.75" sodipodi:rx="1.625" sodipodi:ry="1.25" d="M 361.25,242.75 A 1.625,1.25 0 1 1 358,242.75 A 1.625,1.25 0 1 1 361.25,242.75 z" transform="matrix(0.990166,-0.139894,0.139894,0.990166,-28.709619,61.187536)"/>
  <path sodipodi:type="arc" style="fill:#bcb5af;fill-opacity:1;stroke-width:1;stroke-miterlimit:4;stroke-dasharray:4, 8;stroke-dashoffset:0" id="path3115" sodipodi:cx="359.625" sodipodi:cy="242.75" sodipodi:rx="1.625" sodipodi:ry="1.25" d="M 361.25,242.75 A 1.625,1.25 0 1 1 358,242.75 A 1.625,1.25 0 1 1 361.25,242.75 z" transform="matrix(0.990166,-0.139894,0.139894,0.990166,-16.289389,54.38311)"/>
  <path sodipodi:type="arc" style="fill:#bcb5af;fill-opacity:1;stroke-width:1;stroke-miterlimit:4;stroke-dasharray:4, 8;stroke-dashoffset:0" id="path3117" sodipodi:cx="359.625" sodipodi:cy="242.75" sodipodi:rx="1.625" sodipodi:ry="1.25" d="M 361.25,242.75 A 1.625,1.25 0 1 1 358,242.75 A 1.625,1.25 0 1 1 361.25,242.75 z" transform="matrix(0.990166,-0.139894,0.139894,0.990166,-25.152275,47.050878)"/>
  <path sodipodi:type="arc" style="fill:#bcb5af;fill-opacity:1;stroke-width:1;stroke-miterlimit:4;stroke-dasharray:4, 8;stroke-dashoffset:0" id="path3119" sodipodi:cx="359.625" sodipodi:cy="242.75" sodipodi:rx="1.625" sodipodi:ry="1.25" d="M 361.25,242.75 A 1.625,1.25 0 1 1 358,242.75 A 1.625,1.25 0 1 1 361.25,242.75 z" transform="matrix(0.990166,-0.139894,0.139894,0.990166,3.8854818,39.918533)"/>
  <path sodipodi:type="arc" style="fill:#bcb5af;fill-opacity:1;stroke-width:1;stroke-miterlimit:4;stroke-dasharray:4, 8;stroke-dashoffset:0" id="path3121" sodipodi:cx="359.625" sodipodi:cy="242.75" sodipodi:rx="1.625" sodipodi:ry="1.25" d="M 361.25,242.75 A 1.625,1.25 0 1 1 358,242.75 A 1.625,1.25 0 1 1 361.25,242.75 z" transform="matrix(0.990166,-0.139894,0.139894,0.990166,0.7532738,53.490161)"/>
  <path sodipodi:type="arc" style="fill:#bcb5af;fill-opacity:1;stroke-width:1;stroke-miterlimit:4;stroke-dasharray:4, 8;stroke-dashoffset:0" id="path3123" sodipodi:cx="359.625" sodipodi:cy="242.75" sodipodi:rx="1.625" sodipodi:ry="1.25" d="M 361.25,242.75 A 1.625,1.25 0 1 1 358,242.75 A 1.625,1.25 0 1 1 361.25,242.75 z" transform="matrix(0.990166,-0.139894,0.139894,0.990166,-10.11176,60.579829)"/>
  <path sodipodi:type="arc" style="fill:#bcb5af;fill-opacity:1;stroke-width:1;stroke-miterlimit:4;stroke-dasharray:4, 8;stroke-dashoffset:0" id="path3125" sodipodi:cx="359.625" sodipodi:cy="242.75" sodipodi:rx="1.625" sodipodi:ry="1.25" d="M 361.25,242.75 A 1.625,1.25 0 1 1 358,242.75 A 1.625,1.25 0 1 1 361.25,242.75 z" transform="matrix(0.990166,-0.139894,0.139894,0.990166,-6.8396577,47.998367)"/>
  <text xml:space="preserve" style="font-size:14.00000286px;font-style:normal;font-variant:normal;font-weight:normal;font-stretch:normal;text-align:start;line-height:125%;writing-mode:lr-tb;text-anchor:start;fill:#efb3bb;fill-opacity:1;stroke:none;stroke-width:1px;stroke-linecap:butt;stroke-linejoin:miter;stroke-opacity:1;font-family:Copperplate Gothic Light" x="80.039543" y="189.44971" id="text3127" sodipodi:linespacing="125%" transform="matrix(0.8128418,-0.5824845,0.5824845,0.8128418,0,0)"><tspan sodipodi:role="line" id="tspan3129" x="80.039543" y="189.44971">Alien</tspan><tspan sodipodi:role="line" x="80.039543" y="206.94971" id="tspan3131"/></text>
  <g id="g3133" transform="matrix(0.2126486,-0.3508967,0.3368677,0.2009895,206.569,-135.14299)">
    <path id="path3135" d="M -459.25,206.75 C -454.67043,207.07715 -449.76714,205.82383 -445.53654,208.01554 C -443.80635,210.56215 -443.3562,214.11727 -443.48339,217.22374 C -446.09564,221.31327 -451.24756,223.06509 -455.41536,225.29365 C -461.80973,228.23558 -468.90762,229.08121 -475.88211,228.75 C -480.26612,229.31774 -484.86983,227.85178 -487.33915,224.01058 C -490.39082,220.78062 -493.17129,217.25959 -494.85495,213.11689 C -496.64816,207.53895 -503.18949,210.42094 -507.56338,209.74087 C -514.26287,209.63575 -521.05451,210.10106 -527.69474,209.82147 C -532.26366,208.01311 -537.44969,205.7844 -539.41895,200.89941 C -542.48094,196.83766 -541.67985,191.44167 -541.67001,186.67668 C -541.64647,181.35581 -537.54584,177.3639 -533.88985,174.01017 C -528.39552,170.85238 -523.01573,167.15918 -516.9245,165.27552 C -511.53531,164.28242 -506.06416,165.17209 -500.66421,165.57322 C -496.20643,168.01447 -490.3796,168.70572 -486.83191,172.30993 C -482.26886,178.50032 -476.99131,184.27741 -473.926,191.42122 C -471.37008,196.49398 -468.54133,201.51094 -465.05246,205.97592 C -463.11831,206.23394 -461.18415,206.49197 -459.25,206.75 z" style="fill:#efb3bb;fill-opacity:1;fill-rule:evenodd;stroke:#000000;stroke-width:1px;stroke-linecap:butt;stroke-linejoin:miter;stroke-opacity:1"/>
    <path id="path3137" d="M -497.79288,202.75 C -505.10234,202.30017 -512.46769,202.2269 -519.72379,201.24807 C -524.11381,199.89568 -527.4375,196.41921 -530,192.75 C -530.91126,188.51885 -528.56644,184.37702 -525.04441,182.14366 C -520.7872,178.80376 -514.93008,177.2696 -509.63814,178.46112 C -505.3846,180.46293 -503.41811,185.09743 -500.56504,188.5784 C -496.83408,193.50358 -494.76571,199.36956 -492.07781,204.8729 C -490.79602,208.20837 -489.52291,211.45195 -487.26541,214.27159 C -484.87129,218.27393 -481.24174,222.57563 -476.16266,222.54867 C -468.99264,223.37402 -461.46079,223.01193 -454.89206,219.74344 C -451.58278,219.32687 -445.95912,214.71596 -451.232,212.56694 C -455.97452,211.48138 -460.91593,214.20543 -465.60445,212.23183 C -470.13619,210.6624 -471.36736,205.5683 -473.27989,201.70533 C -475.45164,196.78017 -478.96953,192.62183 -481.53898,187.90785 C -485.79542,180.71438 -491.82759,173.68778 -500.32736,171.75512 C -504.46344,170.71831 -508.74555,171.53775 -512.94633,171.07703 C -516.6092,170.97009 -519.94023,172.69551 -523.22693,174.089 C -526.77641,175.89318 -529.66556,178.68487 -532.73274,181.14968 C -535.48417,183.80934 -536.28459,187.82907 -535.77446,191.49786 C -536.31967,195.33471 -534.77366,199.09095 -531.59397,201.30129 C -526.58299,205.18678 -519.78663,204.23416 -513.86659,204.52541 C -507.79609,204.5671 -501.64994,204.35279 -495.66123,203.60852 C -496.33596,203.23255 -497.1116,203.11002 -497.79288,202.75 z" style="fill:#bfc5b4;fill-opacity:1;fill-rule:evenodd;stroke:#000000;stroke-width:1px;stroke-linecap:butt;stroke-linejoin:miter;stroke-opacity:1"/>
    <path id="path3139" d="M -501.51547,196.74843 C -506.83302,196.54459 -512.2227,197.27927 -517.48251,196.21518 C -520.13382,195.55628 -522.49453,194.12221 -524.88324,192.8508 C -526.674,191.72359 -526.94787,188.83895 -525.24267,187.50747 C -522.83357,185.26377 -519.81377,183.39503 -516.43836,183.27046 C -514.42671,183.04699 -512.24701,182.1281 -510.31552,183.17008 C -508.32341,184.60556 -506.10966,186.02145 -505.08491,188.35954 C -503.69003,191.0653 -502.75392,193.9732 -501.51547,196.74843 z" style="fill:#ffffff;fill-opacity:1;fill-rule:evenodd;stroke:#000000;stroke-width:1px;stroke-linecap:butt;stroke-linejoin:miter;stroke-opacity:1"/>
  </g>
  <path style="fill:url(#radialGradient2611);fill-opacity:1;fill-rule:evenodd;stroke:#000000;stroke-width:0.99999952px;stroke-linecap:butt;stroke-linejoin:miter;stroke-opacity:1" d="M 28.440646,161.34917 L 17.958004,149.82048 L 11.916265,113.45184 L 12.869657,102.29502 L 35.144945,96.256844 L 50.511212,91.194798 L 67.163725,88.842075 L 85.857228,91.983089 L 93.688416,100.09189 L 90.07381,114.15436 L 91.369453,127.16171 L 80.370275,138.83438 L 75.072876,144.82283 L 57.497854,154.7142 L 48.079749,158.3938 L 28.440646,161.34917 z" id="path3141"/>
  <g id="g3254" transform="translate(612.5188,579.9871)"/>
</svg>